<?xml version="1.0" encoding="UTF-8" standalone="no"?>
<!DOCTYPE svg PUBLIC "-//W3C//DTD SVG 1.1//EN" "http://www.w3.org/Graphics/SVG/1.1/DTD/svg11.dtd">
<svg width="100%" height="100%" viewBox="0 0 9 9" version="1.1" xmlns="http://www.w3.org/2000/svg" xmlns:xlink="http://www.w3.org/1999/xlink" xml:space="preserve" xmlns:serif="http://www.serif.com/" style="fill-rule:evenodd;clip-rule:evenodd;stroke-linejoin:round;stroke-miterlimit:2;">
    <g transform="matrix(1,0,0,1,-16704.4,-2340.28)">
        <g transform="matrix(1,0,0,1,15118.4,1999.97)">
            <g id="Path" transform="matrix(0.701469,0,0,0.701469,1585.98,340.31)">
                <path d="M11.739,4.433L7.615,4.433L6.248,0.179C6.213,0.072 6.113,0 6,0C5.888,0 5.788,0.072 5.753,0.179L4.385,4.433L0.261,4.433C0.149,4.433 0.05,4.504 0.014,4.61C-0.022,4.715 0.013,4.832 0.101,4.9L3.391,7.447L2.022,11.657C1.987,11.764 2.026,11.882 2.117,11.948C2.208,12.015 2.332,12.015 2.424,11.948L6,9.35L9.576,11.948C9.668,12.015 9.791,12.015 9.883,11.948C9.974,11.882 10.013,11.764 9.978,11.657L8.609,7.447L11.898,4.9C11.986,4.832 12.021,4.716 11.985,4.61C11.949,4.505 11.85,4.433 11.739,4.433Z" style="fill-rule:nonzero;"/>
            </g>
        </g>
    </g>
</svg>
