<?xml version="1.0" encoding="UTF-8" standalone="no"?>
<!DOCTYPE svg PUBLIC "-//W3C//DTD SVG 1.1//EN" "http://www.w3.org/Graphics/SVG/1.1/DTD/svg11.dtd">
<svg width="100%" height="100%" viewBox="0 0 28 28" version="1.1" xmlns="http://www.w3.org/2000/svg" xmlns:xlink="http://www.w3.org/1999/xlink" xml:space="preserve" xmlns:serif="http://www.serif.com/" style="fill-rule:evenodd;clip-rule:evenodd;stroke-linecap:round;stroke-linejoin:round;">
    <g transform="matrix(1,0,0,1,-2660.58,-1338.83)">
        <g transform="matrix(1,0,0,1,-1638.04,787.606)">
            <g transform="matrix(0.5,0,0,0.5,4294.54,547.143)">
                <g transform="matrix(-1,-7.65714e-16,7.65714e-16,-1,104.88,104.88)">
                    <rect x="43.94" y="43.94" width="17.01" height="17.01" style="fill:none;"/>
                </g>
                <path d="M62.44,62.45L42.44,62.45L42.44,42.45L62.44,42.45L62.44,62.45ZM45.44,59.45L59.44,59.45L59.44,45.45L45.44,45.45L45.44,59.45Z" style="fill:white;fill-rule:nonzero;"/>
                <g transform="matrix(-1,-7.65714e-16,7.65714e-16,-1,70.87,104.88)">
                    <rect x="26.93" y="43.94" width="17.01" height="17.01" style="fill:none;"/>
                </g>
                <path d="M45.44,62.45L25.44,62.45L25.44,42.45L45.44,42.45L45.44,62.45ZM28.44,59.45L42.44,59.45L42.44,45.45L28.44,45.45L28.44,59.45Z" style="fill:white;fill-rule:nonzero;"/>
                <g transform="matrix(-1,-7.65714e-16,7.65714e-16,-1,36.85,104.88)">
                    <rect x="9.92" y="43.94" width="17.01" height="17.01" style="fill:none;"/>
                </g>
                <path d="M28.43,62.45L8.43,62.45L8.43,42.45L28.43,42.45L28.43,62.45ZM11.43,59.45L25.43,59.45L25.43,45.45L11.43,45.45L11.43,59.45Z" style="fill:white;fill-rule:nonzero;"/>
                <g transform="matrix(-1,-7.65714e-16,7.65714e-16,-1,104.88,70.87)">
                    <rect x="43.94" y="26.93" width="17.01" height="17.01" style="fill:none;"/>
                </g>
                <path d="M62.44,45.44L42.44,45.44L42.44,25.44L62.44,25.44L62.44,45.44ZM45.44,42.44L59.44,42.44L59.44,28.44L45.44,28.44L45.44,42.44Z" style="fill:white;fill-rule:nonzero;"/>
                <g transform="matrix(-1,-7.65714e-16,7.65714e-16,-1,70.87,70.87)">
                    <rect x="26.93" y="26.93" width="17.01" height="17.01" style="fill:none;"/>
                </g>
                <path d="M45.44,45.44L25.44,45.44L25.44,25.44L45.44,25.44L45.44,45.44ZM28.44,42.44L42.44,42.44L42.44,28.44L28.44,28.44L28.44,42.44Z" style="fill:white;fill-rule:nonzero;"/>
                <g transform="matrix(-1,-7.65714e-16,7.65714e-16,-1,36.85,70.87)">
                    <rect x="9.92" y="26.93" width="17.01" height="17.01" style="fill:none;"/>
                </g>
                <path d="M28.43,45.44L8.43,45.44L8.43,25.44L28.43,25.44L28.43,45.44ZM11.43,42.44L25.43,42.44L25.43,28.44L11.43,28.44L11.43,42.44Z" style="fill:white;fill-rule:nonzero;"/>
                <g transform="matrix(-1,-7.65714e-16,7.65714e-16,-1,104.88,36.85)">
                    <rect x="43.94" y="9.92" width="17.01" height="17.01" style="fill:none;"/>
                </g>
                <path d="M62.44,28.43L42.44,28.43L42.44,8.43L62.44,8.43L62.44,28.43ZM45.44,25.43L59.44,25.43L59.44,11.43L45.44,11.43L45.44,25.43Z" style="fill:white;fill-rule:nonzero;"/>
                <g transform="matrix(-1,-7.65714e-16,7.65714e-16,-1,70.87,36.85)">
                    <rect x="26.93" y="9.92" width="17.01" height="17.01" style="fill:none;"/>
                </g>
                <path d="M45.44,28.43L25.44,28.43L25.44,8.43L45.44,8.43L45.44,28.43ZM28.44,25.43L42.44,25.43L42.44,11.43L28.44,11.43L28.44,25.43Z" style="fill:white;fill-rule:nonzero;"/>
                <g transform="matrix(-1,-7.65714e-16,7.65714e-16,-1,36.85,36.85)">
                    <rect x="9.92" y="9.92" width="17.01" height="17.01" style="fill:none;"/>
                </g>
                <path d="M28.43,28.43L8.43,28.43L8.43,8.43L28.43,8.43L28.43,28.43ZM11.43,25.43L25.43,25.43L25.43,11.43L11.43,11.43L11.43,25.43Z" style="fill:white;fill-rule:nonzero;"/>
                <rect x="8.42" y="9.92" width="3" height="51.02" style="fill:white;stroke:rgb(29,29,27);stroke-width:0.5px;"/>
                <rect x="59.44" y="9.92" width="3" height="51.02" style="fill:white;stroke:rgb(29,29,27);stroke-width:0.5px;"/>
                <g transform="matrix(-3.82857e-16,1,-1,-3.82857e-16,62.36,-8.5)">
                    <rect x="33.93" y="2.92" width="3" height="48.02" style="fill:white;stroke:rgb(29,29,27);stroke-width:0.5px;"/>
                </g>
                <g transform="matrix(-3.82857e-16,1,-1,-3.82857e-16,79.37,8.5)">
                    <rect x="33.93" y="19.93" width="3" height="48.02" style="fill:white;stroke:rgb(29,29,27);stroke-width:0.5px;"/>
                </g>
                <rect x="42.44" y="9.92" width="3" height="51.02" style="fill:white;stroke:rgb(29,29,27);stroke-width:0.5px;"/>
                <rect x="25.43" y="9.92" width="3" height="51.02" style="fill:white;stroke:rgb(29,29,27);stroke-width:0.5px;"/>
                <g transform="matrix(-3.82857e-16,1,-1,-3.82857e-16,96.38,25.51)">
                    <rect x="33.93" y="33.93" width="3" height="54.02" style="fill:white;stroke:rgb(29,29,27);stroke-width:0.5px;"/>
                </g>
                <g transform="matrix(-3.82857e-16,1,-1,-3.82857e-16,45.35,-25.51)">
                    <rect x="33.93" y="-17.09" width="3" height="54.02" style="fill:white;stroke:rgb(29,29,27);stroke-width:0.5px;"/>
                </g>
            </g>
        </g>
    </g>
</svg>
