<?xml version="1.0" encoding="UTF-8" standalone="no"?>
<!DOCTYPE svg PUBLIC "-//W3C//DTD SVG 1.1//EN" "http://www.w3.org/Graphics/SVG/1.1/DTD/svg11.dtd">
<svg width="100%" height="100%" viewBox="0 0 39 39" version="1.1" xmlns="http://www.w3.org/2000/svg" xmlns:xlink="http://www.w3.org/1999/xlink" xml:space="preserve" xmlns:serif="http://www.serif.com/" style="fill-rule:evenodd;clip-rule:evenodd;stroke-linejoin:round;stroke-miterlimit:2;">
    <style type="text/css">
 .st1{fill: #323232;
    stroke: #323232;
    stroke-width: 0.05;}
    </style>
    <g transform="matrix(1,0,0,1,-12.8412,-12.3987)">
        <g transform="matrix(1,0,0,1,12.8412,12.3987)">
            <path class="st1" id="Path" d="M38.154,0.037C38.603,-0.126 39.039,0.272 38.948,0.717L38.923,0.806L25.192,38.565C25.016,39.048 24.371,39.091 24.119,38.678L24.071,38.583L17.301,21.658L0.377,14.889C-0.1,14.698 -0.122,14.051 0.298,13.812L0.395,13.768L38.154,0.037ZM37.356,1.603L2.282,14.358L17.619,20.492L24.204,13.907C24.412,13.699 24.736,13.676 24.97,13.838L25.053,13.907C25.261,14.116 25.284,14.439 25.122,14.673L25.053,14.756L18.467,21.34L24.601,36.677L37.356,1.603Z"/>
        </g>
    </g>
</svg>