# WaveFront *.obj file (generated by CINEMA 4D)

mtllib ./wardrobe_rail_cap_start.mtl

v 0.08825106173754 1.88735127449036 0
v 0.29455426335335 1.88735127449036 0
v 0.08825106173754 1.57781493663788 0
v 0.29455426335335 1.57781493663788 0
v 0.08825106173754 1.66847610473633 -0.21887527406216
v 0.29455426335335 1.66847610473633 -0.21887527406216
v 0.08825106173754 1.88735127449036 -0.3095363676548
v 0.29455426335335 1.88735127449036 -0.3095363676548
v 0.08825106173754 2.10622668266296 -0.21887527406216
v 0.29455426335335 2.10622668266296 -0.21887527406216
v 0.08825106173754 2.19688773155212 -0
v 0.29455426335335 2.19688773155212 -0
v 0.08825106173754 2.10622668266296 0.21887527406216
v 0.29455426335335 2.10622668266296 0.21887527406216
v 0.08825106173754 1.88735127449036 0.3095363676548
v 0.29455426335335 1.88735127449036 0.3095363676548
v 0.08825106173754 1.66847610473633 0.21887527406216
v 0.29455426335335 1.66847610473633 0.21887527406216
v 0.05103650689125 -1.04937827587128 0
v 0.05103650689125 -1.24443912506104 0
v 1.72078549861908 -1.24443912506104 0
v 1.72078549861908 -1.04937827587128 0
v 0.05103650689125 -0.96949905157089 -0.40157967805862
v 0.05103650689125 -1.1497118473053 -0.4762262403965
v 1.72078549861908 -1.1497118473053 -0.4762262403965
v 1.72078549861908 -0.96949905157089 -0.40157967805862
v 0.05103650689125 -0.74202245473862 -0.74202245473862
v 0.05103650689125 -0.87995135784149 -0.87995135784149
v 1.72078549861908 -0.87995135784149 -0.87995135784149
v 1.72078549861908 -0.74202245473862 -0.74202245473862
v 0.05103650689125 -0.40157967805862 -0.96949905157089
v 0.05103650689125 -0.4762262403965 -1.1497118473053
v 1.72078549861908 -0.4762262403965 -1.1497118473053
v 1.72078549861908 -0.40157967805862 -0.96949905157089
v 0.05103650689125 -0 -1.04937827587128
v 0.05103650689125 -0 -1.24443912506104
v 1.72078549861908 0 -1.24443912506104
v 1.72078549861908 0 -1.04937827587128
v 0.05103650689125 0.40157967805862 -0.96949905157089
v 0.05103650689125 0.4762262403965 -1.1497118473053
v 1.72078549861908 0.4762262403965 -1.1497118473053
v 1.72078549861908 0.40157967805862 -0.96949905157089
v 0.05103650689125 0.74202245473862 -0.74202245473862
v 0.05103650689125 0.87995135784149 -0.87995135784149
v 1.72078549861908 0.87995135784149 -0.87995135784149
v 1.72078549861908 0.74202245473862 -0.74202245473862
v 0.05103650689125 0.96949905157089 -0.40157967805862
v 0.05103650689125 1.1497118473053 -0.4762262403965
v 1.72078549861908 1.1497118473053 -0.4762262403965
v 1.72078549861908 0.96949905157089 -0.40157967805862
v 0.05103650689125 1.04937827587128 -0
v 0.05103650689125 1.24443912506104 -0
v 1.72078549861908 1.24443912506104 -0
v 1.72078549861908 1.04937827587128 -0
v 0.05103650689125 0.96949905157089 0.40157967805862
v 0.05103650689125 1.1497118473053 0.4762262403965
v 1.72078549861908 1.1497118473053 0.4762262403965
v 1.72078549861908 0.96949905157089 0.40157967805862
v 0.05103650689125 0.74202245473862 0.74202245473862
v 0.05103650689125 0.87995135784149 0.87995135784149
v 1.72078549861908 0.87995135784149 0.87995135784149
v 1.72078549861908 0.74202245473862 0.74202245473862
v 0.05103650689125 0.40157967805862 0.96949905157089
v 0.05103650689125 0.4762262403965 1.1497118473053
v 1.72078549861908 0.4762262403965 1.1497118473053
v 1.72078549861908 0.40157967805862 0.96949905157089
v 0.05103650689125 0 1.04937827587128
v 0.05103650689125 0 1.24443912506104
v 1.72078549861908 0 1.24443912506104
v 1.72078549861908 0 1.04937827587128
v 0.05103650689125 -0.40157967805862 0.96949905157089
v 0.05103650689125 -0.4762262403965 1.1497118473053
v 1.72078549861908 -0.4762262403965 1.1497118473053
v 1.72078549861908 -0.40157967805862 0.96949905157089
v 0.05103650689125 -0.74202245473862 0.74202245473862
v 0.05103650689125 -0.87995135784149 0.87995135784149
v 1.72078549861908 -0.87995135784149 0.87995135784149
v 1.72078549861908 -0.74202245473862 0.74202245473862
v 0.05103650689125 -0.96949905157089 0.40157967805862
v 0.05103650689125 -1.1497118473053 0.4762262403965
v 1.72078549861908 -1.1497118473053 0.4762262403965
v 1.72078549861908 -0.96949905157089 0.40157967805862
v 0.03121982701123 -1.2145357131958 0
v 0.03121982701123 -2.35393261909485 0
v 0.16134224832058 -2.35393261909485 0
v 0.16134224832058 -1.2145357131958 0
v 0.03121982701123 -1.12208473682404 -0.46478271484375
v 0.03121982701123 -2.17475032806396 -0.90081107616425
v 0.16134224832058 -2.17475032806396 -0.90081107616425
v 0.16134224832058 -1.12208473682404 -0.46478271484375
v 0.03121982701123 -0.85880643129349 -0.85880643129349
v 0.03121982701123 -1.66448175907135 -1.66448175907135
v 0.16134224832058 -1.66448175907135 -1.66448175907135
v 0.16134224832058 -0.85880643129349 -0.85880643129349
v 0.03121982701123 -0.46478271484375 -1.12208473682404
v 0.03121982701123 -0.90081107616425 -2.17475032806396
v 0.16134224832058 -0.90081107616425 -2.17475032806396
v 0.16134224832058 -0.46478271484375 -1.12208473682404
v 0.03121982701123 -0 -1.2145357131958
v 0.03121982701123 -0 -2.35393261909485
v 0.16134224832058 -0 -2.35393261909485
v 0.16134224832058 -0 -1.2145357131958
v 0.03121982701123 0.46478271484375 -1.12208473682404
v 0.03121982701123 0.90081107616425 -2.17475032806396
v 0.16134224832058 0.90081107616425 -2.17475032806396
v 0.16134224832058 0.46478271484375 -1.12208473682404
v 0.03121982701123 0.85880643129349 -0.85880643129349
v 0.03121982701123 1.66448175907135 -1.66448175907135
v 0.16134224832058 1.66448175907135 -1.66448175907135
v 0.16134224832058 0.85880643129349 -0.85880643129349
v 0.03121982701123 1.12208473682404 -0.46478271484375
v 0.03121982701123 2.17475032806396 -0.90081107616425
v 0.16134224832058 2.17475032806396 -0.90081107616425
v 0.16134224832058 1.12208473682404 -0.46478271484375
v 0.03121982701123 1.2145357131958 -0
v 0.03121982701123 2.35393261909485 -0
v 0.16134224832058 2.35393261909485 -0
v 0.16134224832058 1.2145357131958 -0
v 0.03121982701123 1.12208473682404 0.46478271484375
v 0.03121982701123 2.17475032806396 0.90081107616425
v 0.16134224832058 2.17475032806396 0.90081107616425
v 0.16134224832058 1.12208473682404 0.46478271484375
v 0.03121982701123 0.85880643129349 0.85880643129349
v 0.03121982701123 1.66448175907135 1.66448175907135
v 0.16134224832058 1.66448175907135 1.66448175907135
v 0.16134224832058 0.85880643129349 0.85880643129349
v 0.03121982701123 0.46478271484375 1.12208473682404
v 0.03121982701123 0.90081107616425 2.17475032806396
v 0.16134224832058 0.90081107616425 2.17475032806396
v 0.16134224832058 0.46478271484375 1.12208473682404
v 0.03121982701123 0 1.2145357131958
v 0.03121982701123 0 2.35393261909485
v 0.16134224832058 0 2.35393261909485
v 0.16134224832058 0 1.2145357131958
v 0.03121982701123 -0.46478271484375 1.12208473682404
v 0.03121982701123 -0.90081107616425 2.17475032806396
v 0.16134224832058 -0.90081107616425 2.17475032806396
v 0.16134224832058 -0.46478271484375 1.12208473682404
v 0.03121982701123 -0.85880643129349 0.85880643129349
v 0.03121982701123 -1.66448175907135 1.66448175907135
v 0.16134224832058 -1.66448175907135 1.66448175907135
v 0.16134224832058 -0.85880643129349 0.85880643129349
v 0.03121982701123 -1.12208473682404 0.46478271484375
v 0.03121982701123 -2.17475032806396 0.90081107616425
v 0.16134224832058 -2.17475032806396 0.90081107616425
v 0.16134224832058 -1.12208473682404 0.46478271484375
v 0.08825106173754 -1.7690920829773 0
v 0.29455426335335 -1.7690920829773 0
v 0.08825106173754 -2.07862854003906 0
v 0.29455426335335 -2.07862854003906 0
v 0.08825106173754 -1.98796737194061 -0.21887527406216
v 0.29455426335335 -1.98796737194061 -0.21887527406216
v 0.08825106173754 -1.7690920829773 -0.3095363676548
v 0.29455426335335 -1.7690920829773 -0.3095363676548
v 0.08825106173754 -1.55021679401398 -0.21887527406216
v 0.29455426335335 -1.55021679401398 -0.21887527406216
v 0.08825106173754 -1.45955574512482 -0
v 0.29455426335335 -1.45955574512482 -0
v 0.08825106173754 -1.55021679401398 0.21887527406216
v 0.29455426335335 -1.55021679401398 0.21887527406216
v 0.08825106173754 -1.7690920829773 0.3095363676548
v 0.29455426335335 -1.7690920829773 0.3095363676548
v 0.08825106173754 -1.98796737194061 0.21887527406216
v 0.29455426335335 -1.98796737194061 0.21887527406216
# 164 vertices

vn -1 0 0
vn 0 0 0
vn 0 -0.92387944459915 -0.382683634758
vn 1 0 0
vn 0 -0.38268357515335 -0.9238795042038
vn 0 0.38268318772316 -0.92387962341309
vn 0 0.92387962341309 -0.38268321752548
vn 0 0.92387962341309 0.38268321752548
vn 0 0.38268318772316 0.92387962341309
vn 0 -0.38268357515335 0.9238795042038
vn 0 -0.92387944459915 0.382683634758
vn 0 -1 0
vn 0 -0.92387956380844 -0.38268342614174
vn 0 1 0
vn 0 0.9238795042038 0.38268345594406
vn 0 -0.70710676908493 -0.70710676908493
vn 0 0.70710676908493 0.70710676908493
vn 0 -0.38268342614174 -0.92387956380844
vn 0 0.38268345594406 0.9238795042038
vn -0 0 -1
vn 0 0 1
vn -0 0.38268342614174 -0.92387956380844
vn 0 -0.38268345594406 0.9238795042038
vn 0 0.70710676908493 -0.70710676908493
vn 0 -0.70710676908493 0.70710676908493
vn 0 0.92387956380844 -0.38268342614174
vn 0 -0.9238795042038 0.38268345594406
vn 0 1 0
vn 0 -1 0
vn 0 0.92387956380844 0.38268342614174
vn 0 -0.9238795042038 -0.38268345594406
vn 0 0.38268342614174 0.92387956380844
vn 0 -0.38268345594406 -0.9238795042038
vn 0 0 1
vn -0 0 -1
vn 0 -0.38268342614174 0.92387956380844
vn -0 0.38268345594406 -0.9238795042038
vn 0 -0.92387956380844 0.38268342614174
vn 0 0.9238795042038 -0.38268345594406
vn 0 0.9238795042038 0.38268342614174
vn 0 0.38268342614174 0.9238795042038
vn -0 0 -1
vn 0 0 1
vn -0 0.38268342614174 -0.92387956380844
vn 0 -0.38268342614174 0.9238795042038
vn 0 -0.9238795042038 0.38268342614174
vn 0 -0.9238795042038 -0.38268342614174
vn 0 -0.38268342614174 -0.9238795042038
vn 0 0 1
vn -0 0 -1
vn 0 -0.38268342614174 0.92387956380844
vn -0 0.38268342614174 -0.9238795042038
vn 0 0.9238795042038 -0.38268342614174
vn 0 -0.38268336653709 -0.92387956380844
vn 0 0.38268336653709 -0.92387956380844
vn 0 0.38268336653709 0.92387956380844
vn 0 -0.38268336653709 0.92387956380844
# 57 normals

vt 0.5 0.5 0
vt 0 0.5 0
vt 0.14644661545753 0.85355341434479 0
vt 0 0 0
vt 0 1 0
vt 0.125 1 0
vt 0.125 0 0
vt 1 0.5 0
vt 0.85355341434479 0.85355341434479 0
vt 0.5 1 0
vt 0.25 1 0
vt 0.25 0 0
vt 0.375 1 0
vt 0.375 0 0
vt 0.5 0 0
vt 0.85355341434479 0.14644658565521 0
vt 0.625 1 0
vt 0.625 0 0
vt 0.14644661545753 0.14644658565521 0
vt 0.75 1 0
vt 0.75 0 0
vt 0.875 1 0
vt 0.875 0 0
vt 1 1 0
vt 1 0 0
vt 0.07837302237749 0.5 0
vt 0.03806023299694 0.69134175777435 0
vt 0.11046746373177 0.66134965419769 0
vt 0.0625 1 0
vt 0.0625 0 0
vt 0.92162698507309 0.5 0
vt 0.88953250646591 0.66134965419769 0
vt 0.9619397521019 0.69134175777435 0
vt 0.20186470448971 0.79813528060913 0
vt 0.79813528060913 0.79813528060913 0
vt 0.30865827202797 0.9619397521019 0
vt 0.33865034580231 0.88953256607056 0
vt 0.1875 1 0
vt 0.1875 0 0
vt 0.66134965419769 0.88953256607056 0
vt 0.69134169816971 0.9619397521019 0
vt 0.5 1 0
vt 0.5 0.92162698507309 0
vt 0.3125 1 0
vt 0.3125 0 0
vt 0.4375 1 0
vt 0.4375 0 0
vt 0 0.5 0
vt 0.9619397521019 0.30865836143494 0
vt 0.88953250646591 0.33865034580231 0
vt 0.5625 1 0
vt 0.5625 0 0
vt 0.11046746373177 0.33865034580231 0
vt 0.03806023299694 0.30865836143494 0
vt 0.79813528060913 0.20186471939087 0
vt 0.20186470448971 0.20186471939087 0
vt 0.69134169816971 0.03806030750275 0
vt 0.66134965419769 0.11046755313873 0
vt 0.6875 1 0
vt 0.6875 0 0
vt 0.33865034580231 0.11046755313873 0
vt 0.30865827202797 0.03806030750275 0
vt 0.5 0.07837307453156 0
vt 0.8125 1 0
vt 0.8125 0 0
vt 0.9375 1 0
vt 0.9375 0 0
vt 0.24201987683773 0.5 0
vt 0.26165744662285 0.59872472286224 0
vt 0.75798010826111 0.5 0
vt 0.73834258317947 0.59872472286224 0
vt 0.3175804913044 0.68241953849792 0
vt 0.68241947889328 0.68241953849792 0
vt 0.40127527713776 0.73834258317947 0
vt 0.59872472286224 0.73834258317947 0
vt 0.5 0.75798010826111 0
vt 0.73834258317947 0.40127527713776 0
vt 0.26165744662285 0.40127527713776 0
vt 0.68241947889328 0.31758058071136 0
vt 0.3175804913044 0.31758058071136 0
vt 0.59872472286224 0.26165747642517 0
vt 0.40127527713776 0.26165747642517 0
vt 0.5 0.24201989173889 0
# 83 texture coordinates

o Zylinder.2
usemtl default
f 5/3/1 3/2/1 1/1/1
f 5/7/3 6/6/3 4/5/3 3/4/3
f 6/9/4 2/1/4 4/8/4
f 7/10/1 5/3/1 1/1/1
f 7/12/5 8/11/5 6/6/5 5/7/5
f 8/10/4 2/1/4 6/9/4
f 9/9/1 7/10/1 1/1/1
f 9/14/6 10/13/6 8/11/6 7/12/6
f 10/3/4 2/1/4 8/10/4
f 11/8/1 9/9/1 1/1/1
f 11/15/7 12/10/7 10/13/7 9/14/7
f 12/2/4 2/1/4 10/3/4
f 13/16/1 11/8/1 1/1/1
f 13/18/8 14/17/8 12/10/8 11/15/8
f 14/19/4 2/1/4 12/2/4
f 15/15/1 13/16/1 1/1/1
f 15/21/9 16/20/9 14/17/9 13/18/9
f 16/15/4 2/1/4 14/19/4
f 17/19/1 15/15/1 1/1/1
f 17/23/10 18/22/10 16/20/10 15/21/10
f 18/16/4 2/1/4 16/15/4
f 3/2/1 17/19/1 1/1/1
f 3/25/11 4/24/11 18/22/11 17/23/11
f 4/8/4 2/1/4 18/16/4
f 23/28/1 24/27/1 20/2/1 19/26/1
f 24/30/13 25/29/13 21/5/12 20/4/12
f 25/33/4 26/32/4 22/31/4 21/8/4
f 26/30/15 23/29/15 19/5/14 22/4/14
f 27/34/1 28/3/1 24/27/1 23/28/1
f 28/7/16 29/6/16 25/29/13 24/30/13
f 29/9/4 30/35/4 26/32/4 25/33/4
f 30/7/17 27/6/17 23/29/15 26/30/15
f 31/37/1 32/36/1 28/3/1 27/34/1
f 32/39/18 33/38/18 29/6/16 28/7/16
f 33/41/4 34/40/4 30/35/4 29/9/4
f 34/39/19 31/38/19 27/6/17 30/7/17
f 35/43/1 36/42/1 32/36/1 31/37/1
f 36/12/20 37/11/20 33/38/18 32/39/18
f 37/42/4 38/43/4 34/40/4 33/41/4
f 38/12/21 35/11/21 31/38/19 34/39/19
f 39/40/1 40/41/1 36/42/1 35/43/1
f 40/45/22 41/44/22 37/11/20 36/12/20
f 41/36/4 42/37/4 38/43/4 37/42/4
f 42/45/23 39/44/23 35/11/21 38/12/21
f 43/35/1 44/9/1 40/41/1 39/40/1
f 44/14/24 45/13/24 41/44/22 40/45/22
f 45/3/4 46/34/4 42/37/4 41/36/4
f 46/14/25 43/13/25 39/44/23 42/45/23
f 47/32/1 48/33/1 44/9/1 43/35/1
f 48/47/26 49/46/26 45/13/24 44/14/24
f 49/27/4 50/28/4 46/34/4 45/3/4
f 50/47/27 47/46/27 43/13/25 46/14/25
f 51/31/1 52/8/1 48/33/1 47/32/1
f 52/15/28 53/10/28 49/46/26 48/47/26
f 53/48/4 54/26/4 50/28/4 49/27/4
f 54/15/29 51/10/29 47/46/27 50/47/27
f 55/50/1 56/49/1 52/8/1 51/31/1
f 56/52/30 57/51/30 53/10/28 52/15/28
f 57/54/4 58/53/4 54/26/4 53/48/4
f 58/52/31 55/51/31 51/10/29 54/15/29
f 59/55/1 60/16/1 56/49/1 55/50/1
f 60/18/17 61/17/17 57/51/30 56/52/30
f 61/19/4 62/56/4 58/53/4 57/54/4
f 62/18/16 59/17/16 55/51/31 58/52/31
f 63/58/1 64/57/1 60/16/1 59/55/1
f 64/60/32 65/59/32 61/17/17 60/18/17
f 65/62/4 66/61/4 62/56/4 61/19/4
f 66/60/33 63/59/33 59/17/16 62/18/16
f 67/63/1 68/15/1 64/57/1 63/58/1
f 68/21/34 69/20/34 65/59/32 64/60/32
f 69/15/4 70/63/4 66/61/4 65/62/4
f 70/21/35 67/20/35 63/59/33 66/60/33
f 71/61/1 72/62/1 68/15/1 67/63/1
f 72/65/36 73/64/36 69/20/34 68/21/34
f 73/57/4 74/58/4 70/63/4 69/15/4
f 74/65/37 71/64/37 67/20/35 70/21/35
f 75/56/1 76/19/1 72/62/1 71/61/1
f 76/23/25 77/22/25 73/64/36 72/65/36
f 77/16/4 78/55/4 74/58/4 73/57/4
f 78/23/24 75/22/24 71/64/37 74/65/37
f 79/53/1 80/54/1 76/19/1 75/56/1
f 80/67/38 81/66/38 77/22/25 76/23/25
f 81/49/4 82/50/4 78/55/4 77/16/4
f 82/67/39 79/66/39 75/22/24 78/23/24
f 19/26/1 20/2/1 80/54/1 79/53/1
f 20/25/12 21/24/12 81/66/38 80/67/38
f 21/8/4 22/31/4 82/50/4 81/49/4
f 22/25/14 19/24/14 79/66/39 82/67/39
f 87/69/1 88/27/1 84/2/1 83/68/1
f 88/30/13 89/29/13 85/5/12 84/4/12
f 89/33/4 90/71/4 86/70/4 85/8/4
f 90/30/40 87/29/40 83/5/28 86/4/28
f 91/72/1 92/3/1 88/27/1 87/69/1
f 92/7/16 93/6/16 89/29/13 88/30/13
f 93/9/4 94/73/4 90/71/4 89/33/4
f 94/7/17 91/6/17 87/29/40 90/30/40
f 95/74/1 96/36/1 92/3/1 91/72/1
f 96/39/18 97/38/18 93/6/16 92/7/16
f 97/41/4 98/75/4 94/73/4 93/9/4
f 98/39/41 95/38/41 91/6/17 94/7/17
f 99/76/1 100/42/1 96/36/1 95/74/1
f 100/12/42 101/11/42 97/38/18 96/39/18
f 101/42/4 102/76/4 98/75/4 97/41/4
f 102/12/43 99/11/43 95/38/41 98/39/41
f 103/75/1 104/41/1 100/42/1 99/76/1
f 104/45/44 105/44/44 101/11/42 100/12/42
f 105/36/4 106/74/4 102/76/4 101/42/4
f 106/45/45 103/44/45 99/11/43 102/12/43
f 107/73/1 108/9/1 104/41/1 103/75/1
f 108/14/24 109/13/24 105/44/44 104/45/44
f 109/3/4 110/72/4 106/74/4 105/36/4
f 110/14/25 107/13/25 103/44/45 106/45/45
f 111/71/1 112/33/1 108/9/1 107/73/1
f 112/47/26 113/46/26 109/13/24 108/14/24
f 113/27/4 114/69/4 110/72/4 109/3/4
f 114/47/46 111/46/46 107/13/25 110/14/25
f 115/70/1 116/8/1 112/33/1 111/71/1
f 116/15/28 117/10/28 113/46/26 112/47/26
f 117/48/4 118/68/4 114/69/4 113/27/4
f 118/15/12 115/10/12 111/46/46 114/47/46
f 119/77/1 120/49/1 116/8/1 115/70/1
f 120/52/30 121/51/30 117/10/28 116/15/28
f 121/54/4 122/78/4 118/68/4 117/48/4
f 122/52/47 119/51/47 115/10/12 118/15/12
f 123/79/1 124/16/1 120/49/1 119/77/1
f 124/18/17 125/17/17 121/51/30 120/52/30
f 125/19/4 126/80/4 122/78/4 121/54/4
f 126/18/16 123/17/16 119/51/47 122/52/47
f 127/81/1 128/57/1 124/16/1 123/79/1
f 128/60/32 129/59/32 125/17/17 124/18/17
f 129/62/4 130/82/4 126/80/4 125/19/4
f 130/60/48 127/59/48 123/17/16 126/18/16
f 131/83/1 132/15/1 128/57/1 127/81/1
f 132/21/49 133/20/49 129/59/32 128/60/32
f 133/15/4 134/83/4 130/82/4 129/62/4
f 134/21/50 131/20/50 127/59/48 130/60/48
f 135/82/1 136/62/1 132/15/1 131/83/1
f 136/65/51 137/64/51 133/20/49 132/21/49
f 137/57/4 138/81/4 134/83/4 133/15/4
f 138/65/52 135/64/52 131/20/50 134/21/50
f 139/80/1 140/19/1 136/62/1 135/82/1
f 140/23/25 141/22/25 137/64/51 136/65/51
f 141/16/4 142/79/4 138/81/4 137/57/4
f 142/23/24 139/22/24 135/64/52 138/65/52
f 143/78/1 144/54/1 140/19/1 139/80/1
f 144/67/38 145/66/38 141/22/25 140/23/25
f 145/49/4 146/77/4 142/79/4 141/16/4
f 146/67/53 143/66/53 139/22/24 142/23/24
f 83/68/1 84/2/1 144/54/1 143/78/1
f 84/25/12 85/24/12 145/66/38 144/67/38
f 85/8/4 86/70/4 146/77/4 145/49/4
f 86/25/28 83/24/28 143/66/53 146/67/53
f 151/3/1 149/2/1 147/1/1
f 151/7/3 152/6/3 150/5/3 149/4/3
f 152/9/4 148/1/4 150/8/4
f 153/10/1 151/3/1 147/1/1
f 153/12/54 154/11/54 152/6/54 151/7/54
f 154/10/4 148/1/4 152/9/4
f 155/9/1 153/10/1 147/1/1
f 155/14/55 156/13/55 154/11/55 153/12/55
f 156/3/4 148/1/4 154/10/4
f 157/8/1 155/9/1 147/1/1
f 157/15/7 158/10/7 156/13/7 155/14/7
f 158/2/4 148/1/4 156/3/4
f 159/16/1 157/8/1 147/1/1
f 159/18/8 160/17/8 158/10/8 157/15/8
f 160/19/4 148/1/4 158/2/4
f 161/15/1 159/16/1 147/1/1
f 161/21/56 162/20/56 160/17/56 159/18/56
f 162/15/4 148/1/4 160/19/4
f 163/19/1 161/15/1 147/1/1
f 163/23/57 164/22/57 162/20/57 161/21/57
f 164/16/4 148/1/4 162/15/4
f 149/2/1 163/19/1 147/1/1
f 149/25/11 150/24/11 164/22/11 163/23/11
f 150/8/4 148/1/4 164/16/4


