<?xml version="1.0" encoding="UTF-8" standalone="no"?>
<!DOCTYPE svg PUBLIC "-//W3C//DTD SVG 1.1//EN" "http://www.w3.org/Graphics/SVG/1.1/DTD/svg11.dtd">
<svg width="100%" height="100%" viewBox="0 0 26 26" version="1.1" xmlns="http://www.w3.org/2000/svg" xmlns:xlink="http://www.w3.org/1999/xlink" xml:space="preserve" xmlns:serif="http://www.serif.com/" style="fill-rule:evenodd;clip-rule:evenodd;stroke-linejoin:round;stroke-miterlimit:2;">
    <g transform="matrix(1,0,0,1,-707.707,-176.013)">
        <g transform="matrix(1.25928,0,0,1.68632,-2918.21,-320.987)">
            <g transform="matrix(0.645208,0,0,0.48182,22.9815,200.979)">
                <circle cx="4443.04" cy="210.568" r="16" style="fill:white;fill-opacity:0.2;"/>
            </g>
        </g>
        <g transform="matrix(1.25928,0,0,1.68632,-2918.21,-320.987)">
            <g transform="matrix(0.485395,0,0,0.362477,733.038,226.108)">
                <circle cx="4443.04" cy="210.568" r="16" style="fill:rgb(41,203,177);fill-opacity:0.1;"/>
            </g>
        </g>
        <g transform="matrix(1.25928,0,0,1.68632,-2918.21,-320.987)">
            <g transform="matrix(0.336501,0,0,0.251287,1394.58,249.521)">
                <circle cx="4443.04" cy="210.568" r="16" style="fill:rgb(41,203,177);fill-opacity:0.15;"/>
            </g>
        </g>
        <g transform="matrix(1.25928,0,0,1.68632,-2918.21,-320.987)">
            <g transform="matrix(0.148894,0,0,0.111189,2228.13,279.022)">
                <circle cx="4443.04" cy="210.568" r="16" style="fill:rgb(41,203,177);"/>
            </g>
        </g>
    </g>
</svg>
