<?xml version="1.0" encoding="UTF-8" standalone="no"?>
<!DOCTYPE svg PUBLIC "-//W3C//DTD SVG 1.1//EN" "http://www.w3.org/Graphics/SVG/1.1/DTD/svg11.dtd">
<svg width="100%" height="100%" viewBox="0 0 20 20" version="1.1" xmlns="http://www.w3.org/2000/svg" xmlns:xlink="http://www.w3.org/1999/xlink" xml:space="preserve" xmlns:serif="http://www.serif.com/" style="fill-rule:evenodd;clip-rule:evenodd;stroke-linejoin:round;stroke-miterlimit:2;">
    <g transform="matrix(1,0,0,1,-551.834,-993.179)">
        <g transform="matrix(1.25928,0,0,1.68632,-3077.95,492.305)">
            <g transform="matrix(-0.0298594,0,0,0.022298,2890.07,302.731)">
                <g transform="matrix(1,0,0,1,-256,-256)">
                    <path d="M328,224L456,224C469.3,224 480,213.3 480,200L480,72C480,62.3 474.2,53.5 465.2,49.8C456.2,46.1 445.9,48.1 439,55L397.4,96.6C309.8,10.1 168.7,10.4 81.6,97.6C-5.9,185.1 -5.9,326.9 81.6,414.4C169.1,501.9 310.9,501.9 398.4,414.4C410.9,401.9 410.9,381.6 398.4,369.1C385.9,356.6 365.6,356.6 353.1,369.1C290.6,431.6 189.3,431.6 126.8,369.1C64.3,306.6 64.3,205.3 126.8,142.8C189,80.6 289.5,80.3 352.1,141.8L311,183C304.1,189.9 302.1,200.2 305.8,209.2C309.5,218.2 318.3,224 328,224Z" style="fill-rule:nonzero;"/>
                </g>
            </g>
        </g>
    </g>
</svg>
