<svg id="Ebene_1" data-name="Ebene 1" xmlns="http://www.w3.org/2000/svg" viewBox="0 0 70.87 70.87"><defs><style>.cls-1,.cls-3{fill:none;}.cls-1,.cls-2,.cls-3{stroke:#000;stroke-linecap:round;stroke-linejoin:round;}.cls-1,.cls-2{stroke-width:0.5px;}.cls-2{fill:#fff;}.cls-3{stroke-width:0.25px;stroke-dasharray:1 1 6 1 3 1;}</style></defs><title>ICONS</title><rect class="cls-1" x="13.21" y="7.82" width="44.44" height="44.44" transform="translate(70.87 60.09) rotate(-180)"/><rect class="cls-1" x="10.99" y="5.6" width="48.89" height="48.89" transform="translate(70.87 60.09) rotate(-180)"/><line class="cls-2" x1="25" y1="22.41" x2="26.83" y2="23.72"/><polygon class="cls-2" points="26.83 68.43 59.88 54.49 59.88 6.51 26.83 20.7 26.83 68.43"/><line class="cls-1" x1="30.52" y1="42.38" x2="30.52" y2="48.26"/><polygon class="cls-2" points="59.88 7.14 58.05 5.83 25 19.77 26.83 21.08 59.88 7.14"/><polygon class="cls-2" points="26.83 68.43 25 67.12 25 19.77 26.83 21.08 26.83 68.43"/><line class="cls-3" x1="53.62" y1="24.31" x2="36.95" y2="49.49"/><line class="cls-3" x1="43.06" y1="47.12" x2="52.25" y2="33.24"/></svg>