<svg xmlns="http://www.w3.org/2000/svg" width="14.209" height="7.439" viewBox="0 0 14.209 7.439"><defs><style>.a{fill:#fff;}.b{fill:none;stroke:#000;stroke-linecap:round;stroke-linejoin:round;stroke-width:0.75px;}</style></defs><g transform="translate(0.375 0.375)"><circle cx="2.523" cy="2.523" r="2.523" transform="translate(4.206 0.823)"/><circle class="a" cx="0.654" cy="0.654" r="0.654" transform="translate(7.146 1.81)"/><path class="b" d="M-2431.317,1616.766a10.406,10.406,0,0,1-2.759,2.276,8,8,0,0,1-3.969,1.071,8.039,8.039,0,0,1-3.972-1.071,10.326,10.326,0,0,1-2.759-2.276,10.388,10.388,0,0,1,2.762-2.279,8.06,8.06,0,0,1,3.969-1.064,8.06,8.06,0,0,1,3.967,1.064A10.433,10.433,0,0,1-2431.317,1616.766Z" transform="translate(2444.776 -1613.423)"/></g></svg>