<?xml version="1.0" encoding="UTF-8"?>
<svg width="32px" height="32px" viewBox="0 0 32 32" version="1.1" xmlns="http://www.w3.org/2000/svg" xmlns:xlink="http://www.w3.org/1999/xlink">
    <title>C4AB6848-ADCD-4CCE-A889-D56CFF207C28</title>
    <g id="---------↳--🖥--UI-Styleguide" stroke="none" stroke-width="1" fill="none" fill-rule="evenodd">
        <g id="Icon-Overview" transform="translate(-716.000000, -948.000000)">
            <g id="Library" transform="translate(100.000000, 100.000000)">
                <g id="32px" transform="translate(0.000000, 832.000000)">
                    <g id="cart" transform="translate(600.000000, 0.000000)">
                        <g id="ic_cart" transform="translate(16.000000, 16.000000)">
                            <polygon id="bounce" opacity="0" points="0 0 32 0 32 32 0 32"></polygon>
                            <path d="M11.7498048,22.8326828 C12.6242198,22.8326828 13.3330731,23.5415361 13.3330731,24.415951 C13.3330731,25.290366 12.6242198,25.9992193 11.7498048,25.9992193 C10.8753899,25.9992193 10.1665366,25.290366 10.1665366,24.415951 C10.1665366,23.5415361 10.8753899,22.8326828 11.7498048,22.8326828 Z M22.8326828,22.8326828 C23.7070977,22.8326828 24.415951,23.5415361 24.415951,24.415951 C24.415951,25.290366 23.7070977,25.9992193 22.8326828,25.9992193 C21.9582678,25.9992193 21.2494145,25.290366 21.2494145,24.415951 C21.2494145,23.5415361 21.9582678,22.8326828 22.8326828,22.8326828 Z M10.9581707,7 C11.3680527,7 11.7051781,7.31150782 11.7457177,7.71069415 L11.7498048,7.79163414 L11.7495033,11.7495033 L25.2075852,11.7498048 C25.7421813,11.7498048 26.1154172,12.2651948 25.9673384,12.7643104 L25.942599,12.8354445 L22.7760625,20.7517859 C22.6658606,21.0272905 22.41208,21.2158496 22.1212149,21.2453629 L22.0410486,21.2494145 L10.9581707,21.2494145 C10.5482887,21.2494145 10.2111632,20.9379067 10.1706237,20.5387203 L10.1665366,20.4577803 L10.166235,8.5829667 L7.79163414,8.58326828 C7.38175214,8.58326828 7.0446267,8.27176045 7.00408712,7.87257413 L7,7.79163414 C7,7.38175214 7.31150782,7.0446267 7.71069415,7.00408712 L7.79163414,7 L10.9581707,7 Z" fill="#000" fill-rule="nonzero"></path>
                        </g>
                    </g>
                </g>
            </g>
        </g>
    </g>
</svg>
