<?xml version="1.0" encoding="UTF-8" standalone="no"?>
<!DOCTYPE svg PUBLIC "-//W3C//DTD SVG 1.1//EN" "http://www.w3.org/Graphics/SVG/1.1/DTD/svg11.dtd">
<svg width="100%" height="100%" viewBox="0 0 28 28" version="1.1" xmlns="http://www.w3.org/2000/svg" xmlns:xlink="http://www.w3.org/1999/xlink" xml:space="preserve" xmlns:serif="http://www.serif.com/" style="fill-rule:evenodd;clip-rule:evenodd;stroke-linejoin:round;stroke-miterlimit:2;">
    <g transform="matrix(1,0,0,1,-334.091,-984.001)">
        <g transform="matrix(0.982086,0,0,0.97137,-1006.42,78)">
            <g transform="matrix(1.50056,0,0,1.51711,1354.46,922.084)">
                <path d="M11.75,22.833C12.624,22.833 13.333,23.542 13.333,24.416C13.333,25.29 12.624,25.999 11.75,25.999C10.875,25.999 10.167,25.29 10.167,24.416C10.167,23.542 10.875,22.833 11.75,22.833ZM22.833,22.833C23.707,22.833 24.416,23.542 24.416,24.416C24.416,25.29 23.707,25.999 22.833,25.999C21.958,25.999 21.249,25.29 21.249,24.416C21.249,23.542 21.958,22.833 22.833,22.833ZM10.958,7C11.368,7 11.705,7.312 11.746,7.711L11.75,7.792L11.75,11.75L25.208,11.75C25.742,11.75 26.115,12.265 25.967,12.764L25.943,12.835L22.776,20.752C22.666,21.027 22.412,21.216 22.121,21.245L22.041,21.249L10.958,21.249C10.548,21.249 10.211,20.938 10.171,20.539L10.167,20.458L10.166,8.583L7.792,8.583C7.382,8.583 7.045,8.272 7.004,7.873L7,7.792C7,7.382 7.312,7.045 7.711,7.004L7.792,7L10.958,7Z" style="fill:white;fill-rule:nonzero;"/>
            </g>
        </g>
    </g>
</svg>
