<?xml version="1.0" encoding="UTF-8" standalone="no"?>
<!DOCTYPE svg PUBLIC "-//W3C//DTD SVG 1.1//EN" "http://www.w3.org/Graphics/SVG/1.1/DTD/svg11.dtd">
<svg width="100%" height="100%" viewBox="0 0 6 5" version="1.1" xmlns="http://www.w3.org/2000/svg" xmlns:xlink="http://www.w3.org/1999/xlink" xml:space="preserve" xmlns:serif="http://www.serif.com/" style="fill-rule:evenodd;clip-rule:evenodd;stroke-linejoin:round;stroke-miterlimit:2;">
    <g transform="matrix(1,0,0,1,-3747.92,-1346.3)">
        <g transform="matrix(1,0,0,1,-955.918,783.606)">
            <g id="ic_up_w_s" transform="matrix(1,8.88178e-16,8.88178e-16,-1,4616.83,573.195)">
                <path d="M92.945,6.47L90.218,10.382C90.166,10.456 90.086,10.5 90,10.5C89.914,10.5 89.833,10.456 89.781,10.382L87.054,6.47C86.992,6.381 86.982,6.262 87.028,6.162C87.074,6.063 87.169,6 87.272,6L92.727,6C92.83,6 92.924,6.063 92.971,6.162C93.017,6.262 93.007,6.381 92.945,6.47L92.945,6.47Z" style="fill-rule:nonzero;"/>
            </g>
        </g>
    </g>
</svg>
