<?xml version="1.0" encoding="utf-8"?>
<!-- Generator: Adobe Illustrator 24.3.0, SVG Export Plug-In . SVG Version: 6.00 Build 0)  -->
<svg version="1.1" id="Ebene_1" xmlns="http://www.w3.org/2000/svg" xmlns:xlink="http://www.w3.org/1999/xlink" x="0px" y="0px"
	 viewBox="0 0 42.3 42.3" style="enable-background:new 0 0 42.3 42.3;" xml:space="preserve">
<style type="text/css">
	.st0{fill:none;stroke:#030404;stroke-width:0.75;stroke-linecap:round;stroke-linejoin:round;}
	.st1{fill:none;stroke:#030404;stroke-width:0.75;stroke-linecap:round;stroke-linejoin:round;stroke-dasharray:0,2.0791;}
	.st2{fill:none;stroke:#030404;stroke-width:0.75;stroke-linecap:round;stroke-linejoin:round;stroke-dasharray:0,1.9463;}
	.st3{fill:none;stroke:#030404;stroke-width:0.75;stroke-linecap:round;stroke-linejoin:round;stroke-dasharray:0,1.9277;}
	.st4{fill:none;stroke:#030404;stroke-width:0.75;stroke-linecap:round;stroke-linejoin:round;stroke-dasharray:0,1.9323;}
	.st5{fill:none;stroke:#000000;stroke-width:0.6738;stroke-linecap:round;stroke-linejoin:round;}
	.st6{fill:none;stroke:#030404;stroke-width:0.75;stroke-linecap:round;stroke-linejoin:round;stroke-dasharray:0,2;}
</style>
<g id="Komponente_3_2_1_" transform="translate(0 6)">
	<g id="Gruppe_2651_2_" transform="translate(899 -5889)">
		<g id="Gruppe_2664_2_" transform="translate(-3)">
			<g id="Pfad_985_3_">
				<g>
					<line class="st0" x1="-869.1" y1="5912.8" x2="-869.1" y2="5912.8"/>
					<line class="st1" x1="-867" y1="5913.2" x2="-859.9" y2="5914.5"/>
					<line class="st0" x1="-858.8" y1="5914.7" x2="-858.8" y2="5914.7"/>
					<line class="st2" x1="-858.8" y1="5912.7" x2="-858.8" y2="5890.3"/>
					<line class="st0" x1="-858.8" y1="5889.4" x2="-858.8" y2="5889.4"/>
					<line class="st1" x1="-860.9" y1="5889.7" x2="-868" y2="5891.1"/>
					<line class="st0" x1="-869.1" y1="5891.3" x2="-869.1" y2="5891.3"/>
				</g>
			</g>
			<g id="Pfad_986_1_">
				<g>
					<line class="st0" x1="-869.1" y1="5891.3" x2="-869.1" y2="5891.3"/>
					<line class="st3" x1="-871" y1="5890.9" x2="-889" y2="5887.7"/>
					<line class="st0" x1="-889.9" y1="5887.5" x2="-889.9" y2="5887.5"/>
					<line class="st4" x1="-889.9" y1="5889.5" x2="-889.9" y2="5915.5"/>
					<line class="st0" x1="-889.9" y1="5916.5" x2="-889.9" y2="5916.5"/>
					<line class="st3" x1="-888" y1="5916.2" x2="-870" y2="5912.9"/>
					<line class="st0" x1="-869.1" y1="5912.8" x2="-869.1" y2="5912.8"/>
				</g>
			</g>
			<path id="Pfad_987_2_" class="st0" d="M-889.9,5887.5v29l9.5,3.6v-36.3L-889.9,5887.5z"/>
			<path id="Pfad_988_2_" class="st0" d="M-858.8,5889.4l-21.6-5.5v36.3l21.6-5.5V5889.4z"/>
		</g>
	</g>
</g>
<g>
	<g>
		<path class="st5" d="M18.9,40.5C8.6,40.2,0.6,37.4,0.6,34c0-1.7,2.1-3.3,5.4-4.4"/>
		<path class="st5" d="M34.7,38.9c-3,0.9-6.9,1.4-11.1,1.6"/>
		<path class="st5" d="M37.2,30.2c2.2,0.8,4.5,2.4,4.5,3.8c0,1.3-1.1,2.5-3.1,3.5"/>
		<path class="st5" d="M23.6,40.5c-0.8,0-1.6,0-2.5,0c-0.8,0-1.5,0-2.2,0"/>
	</g>
	<g>
		<path class="st0" d="M18.9,40.5C8.6,40.2,0.6,37.4,0.6,34c0-1.7,2.1-3.3,5.4-4.4"/>
		<path class="st0" d="M34.7,38.9c-3,0.9-6.9,1.4-11.1,1.6"/>
		<path class="st0" d="M37.2,30.2c2.2,0.8,4.5,2.4,4.5,3.8c0,1.3-1.1,2.5-3.1,3.5"/>
		<path class="st0" d="M23.6,40.5c-0.8,0-1.6,0-2.5,0c-0.8,0-1.5,0-2.2,0"/>
	</g>
</g>
<g>
	<polygon points="33.1,41.8 36.3,38.4 31.7,37.4 	"/>
</g>
<path id="Pfad_985_1_" class="st6" d="M26.9,8.3v21.5"/>
</svg>
