<svg id="Ebene_1" data-name="Ebene 1" xmlns="http://www.w3.org/2000/svg" viewBox="0 0 70.87 70.87" width="32" height="32">
    <defs>
        <style>.cls-1{fill:#fff;}</style>
    </defs>
    <rect class="cls-1" x="9.53" y="11.46" width="51.8" height="51.8"/>
    <path d="M61.74,35.83a.78.78,0,0,0-.05-.14h0L57.26,25.52h0a1.3,1.3,0,0,0-.1-.15l0,0a.81.81,0,0,0-.14-.12h0l-.16-.07h0l-.1,0H14.19l-.09,0h0l-.15.07h0a1.49,1.49,0,0,0-.14.12s0,0,0,0a1.3,1.3,0,0,0-.1.15h0L9.17,35.69h0a.74.74,0,0,0,0,.14h0a.77.77,0,0,0,0,.15V54a.74.74,0,0,0,.74.74H61a.74.74,0,0,0,.73-.74V36a.76.76,0,0,0,0-.15Zm-4.43-6.5,2.58,5.92H57.31ZM15,26.54H55.84v8.71H15Zm-1.48,2.79v5.92H11Z"/>
</svg>