<svg id="Ebene_1" data-name="Ebene 1" xmlns="http://www.w3.org/2000/svg" viewBox="0 0 70.87 70.87" width="32" height="32">
    <defs>
        <style>.cls-1{fill:#fff;}</style>
    </defs>
    <rect class="cls-1" x="8.19" y="9.62" width="51.8" height="51.8"/>
    <path d="M56.37,56.4V14.64A.76.76,0,0,0,56,14a.73.73,0,0,0-.59-.1l-.18,0H13.51a.74.74,0,0,0-.74.73V56.4a.74.74,0,0,0,.74.74H23.84V69.5a.73.73,0,0,0,.33.61.69.69,0,0,0,.41.13.67.67,0,0,0,.28-.06l31.06-13.1A.74.74,0,0,0,56.37,56.4ZM24.29,27.06a.75.75,0,0,0-.45.68V55.66H14.25V15.38H52Z"/>
</svg>