<svg id="Ebene_1" data-name="Ebene 1" xmlns="http://www.w3.org/2000/svg" viewBox="0 0 70.87 70.87" width="32" height="32">
    <defs>
        <style>.cls-1{fill:#fff;}</style>
    </defs>
    <rect class="cls-1" x="9.99" y="9.62" width="51.8" height="51.8"/>
    <path d="M57.5,56.4V39.14h6.18a.72.72,0,0,0,.59-.29.75.75,0,0,0,.12-.65L57.47,14.44s0,0,0,0,0,0,0-.05l0-.08,0,0a.39.39,0,0,0-.08-.1l0,0L57.19,14l0,0-.07,0,0,0-.08,0H14.82l-.07,0-.05,0-.07,0-.05,0-.07.06,0,0-.08.1,0,0,0,.08,0,.05,0,0L7.39,38.2a.75.75,0,0,0,.12.65.72.72,0,0,0,.59.29h6.17V56.4a.74.74,0,0,0,.74.74H56.77A.74.74,0,0,0,57.5,56.4ZM56,55.66H15.75V39.14H56Z"/>
</svg>