<svg xmlns="http://www.w3.org/2000/svg" width="20" height="28" viewBox="0 0 20 28">
    <g fill="#000" fill-rule="nonzero">
        <path d="M14.444 10.08a2.2 2.2 0 0 0-1.235.378A2.224 2.224 0 0 0 11.11 8.96c-.405 0-.784.11-1.111.3V4.48c0-1.237-.995-2.24-2.222-2.24a2.231 2.231 0 0 0-2.222 2.24v10.93l-1.122-1.959a2.213 2.213 0 0 0-3.036-.82 2.25 2.25 0 0 0-.813 3.06l.798 1.395c.865 1.517 1.165 4.089 2.033 5.608 1.212 2.12 3.242 4.914 3.356 5.073.179.251.526.308.775.127a.563.563 0 0 0 .126-.781c-.112-.157-2.299-3.225-3.297-4.981-.677-1.193-1.081-3.964-2.03-5.606l-.799-1.395a1.125 1.125 0 0 1 .407-1.53 1.106 1.106 0 0 1 1.517.41l2.08 3.63c.194.41 1.116.39 1.116-.281V4.48c0-.619.497-1.12 1.11-1.12.614 0 1.112.501 1.112 1.12V14c0 .31.249.56.555.56.307 0 .556-.25.556-.56v-2.8c0-.619.497-1.12 1.111-1.12s1.111.501 1.111 1.12V14c0 .31.249.56.556.56.307 0 .555-.25.555-.56v-1.68c0-.619.498-1.12 1.111-1.12.614 0 1.112.501 1.112 1.12v2.8c0 .31.248.56.555.56.307 0 .556-.25.556-.56v-1.68c0-.619.497-1.12 1.11-1.12.614 0 1.112.501 1.112 1.12v3.92c0 3.668-2.222 7.163-2.222 10.08 0 .31.248.56.555.56.307 0 .556-.25.556-.56 0-2.514 2.222-6.398 2.222-10.08v-3.92c0-1.237-.995-2.24-2.222-2.24a2.2 2.2 0 0 0-1.236.378 2.224 2.224 0 0 0-2.098-1.498z"/>
        <path d="M4.444 7.443a4.484 4.484 0 0 1-1.11-2.963C3.333 2.006 5.323 0 7.777 0c2.454 0 4.444 2.006 4.444 4.48 0 1.136-.42 2.174-1.11 2.963V4.48c0-1.856-1.493-3.36-3.334-3.36S4.444 2.624 4.444 4.48v2.963z"/>
    </g>
</svg>
