<svg xmlns="http://www.w3.org/2000/svg" viewBox="0 0 550.3 481.67"><defs><style>.cls-1{isolation:isolate;}.cls-10,.cls-2{fill:#dddfe4;opacity:0.52;}.cls-3,.cls-6{fill:#fff;}.cls-3,.cls-4,.cls-8{stroke:#4d4c4c;stroke-linecap:round;stroke-linejoin:round;}.cls-4{fill:#e8d45d;}.cls-5{fill:#f8f7f7;}.cls-7{fill:#c89624;}.cls-8{fill:none;}.cls-9{fill:#4d4c4c;}.cls-10{mix-blend-mode:multiply;}</style></defs><g class="cls-1"><g id="Ebene_1" data-name="Ebene 1"><path class="cls-2" d="M503.65,421.51c0,9.5-40.52,8.37-198.9,8.37s-250-.33-252.23-9.36S153.41,410.23,284.72,409,503.64,405.25,503.65,421.51Z"/><rect class="cls-3" x="274.43" y="124.03" width="5.02" height="400.83" transform="translate(-47.51 601.39) rotate(-90)"/><rect class="cls-3" x="274.43" y="52.27" width="5.02" height="400.83" transform="translate(24.25 529.63) rotate(-90)"/><rect class="cls-3" x="274.43" y="-19.49" width="5.02" height="400.83" transform="translate(96.01 457.87) rotate(-90)"/><rect class="cls-3" x="274.43" y="-91.25" width="5.02" height="400.83" transform="translate(167.77 386.11) rotate(-90)"/><rect class="cls-3" x="274.43" y="-163.01" width="5.02" height="400.83" transform="translate(239.53 314.35) rotate(-90)"/><rect class="cls-3" x="266.59" y="208.65" width="20.7" height="400.83" transform="translate(-132.13 686) rotate(-90)"/><rect class="cls-3" x="274.43" y="195.79" width="5.02" height="400.83" transform="translate(-119.27 673.15) rotate(-90)"/><rect class="cls-3" x="71.51" y="34.9" width="5.02" height="384.52"/><rect class="cls-3" x="477.35" y="34.9" width="5.02" height="384.52"/><rect class="cls-3" x="375.89" y="34.9" width="5.02" height="384.52"/><rect class="cls-4" x="249.01" y="34.9" width="5.02" height="384.52"/><rect class="cls-3" x="172.97" y="34.9" width="5.02" height="384.52"/><path class="cls-3" d="M341,215.22H280.14a2.2,2.2,0,0,0,0,4.39H341a2.2,2.2,0,1,0,0-4.39Z"/><path class="cls-3" d="M315.56,226.79H275.75a2.2,2.2,0,0,0,0,4.39h39.81a2.2,2.2,0,1,0,0-4.39Z"/><path class="cls-3" d="M291.94,203.64H275.75a2.2,2.2,0,0,0,0,4.39h16.19a2.2,2.2,0,0,0,0-4.39Z"/><circle class="cls-3" cx="251.52" cy="217.41" r="17.06"/><path class="cls-5" d="M254.73,231.27a17.06,17.06,0,0,1-13.56-27.42,17.06,17.06,0,1,0,23.91,23.92A17,17,0,0,1,254.73,231.27Z"/><circle class="cls-6" cx="251.52" cy="217.41" r="18.06"/><path class="cls-7" d="M251.52,200.35a17.07,17.07,0,1,1-17.06,17.06,17.06,17.06,0,0,1,17.06-17.06m0-2a19.07,19.07,0,1,0,19.06,19.06,19.08,19.08,0,0,0-19.06-19.06Z"/><polyline class="cls-8" points="246.49 221.58 242.32 217.41 246.49 213.25"/><polyline class="cls-8" points="256.56 213.25 260.73 217.41 256.56 221.58"/><polygon class="cls-3" points="346.54 286.63 252.83 221.62 273.04 333.43 300.51 294.95 346.54 286.63"/><polygon class="cls-9" points="252.32 221.62 251.72 234.61 254.61 234.27 252.32 221.62"/><path class="cls-10" d="M272.63,332.61,259.22,255.2s22.52,35.62,48.11,37.73L300,294.66Z"/><polygon class="cls-9" points="251.72 234.74 254.23 269.02 254.23 234.74 251.72 234.74"/><polygon class="cls-9" points="257.84 322.19 258.29 326.51 271.87 326.68 270.61 322.22 257.84 322.19"/><polygon class="cls-9" points="254.03 250.18 257.79 250.18 259.22 255.2 254.41 255.87 254.03 250.18"/><polygon class="cls-9" points="281.07 322.19 286.32 321.94 283.28 326.68 277.95 326.55 281.07 322.19"/><polygon class="cls-3" points="324.22 428.65 314.99 419.42 305.75 428.65 254.03 428.65 254.03 467.35 375.95 467.35 375.95 428.65 324.22 428.65"/><rect class="cls-2" x="258.4" y="432.84" width="112.92" height="31.85"/><rect class="cls-6" x="259.79" y="433.57" width="110.14" height="28.15"/><line class="cls-3" x1="364.97" y1="441.46" x2="357.93" y2="441.46"/><line class="cls-3" x1="361.45" y1="444.97" x2="361.45" y2="437.94"/><line class="cls-3" x1="364.97" y1="454.02" x2="357.93" y2="454.02"/><path class="cls-9" d="M286.37,447.26l.81-7.93h8.16v1.87H288.9l-.48,4.34a5.11,5.11,0,0,1,2.65-.69,4.41,4.41,0,0,1,3.46,1.44,5.62,5.62,0,0,1,1.28,3.88,5.49,5.49,0,0,1-1.33,3.88,4.85,4.85,0,0,1-3.71,1.41,5,5,0,0,1-3.45-1.17,4.73,4.73,0,0,1-1.52-3.23h1.92a3.23,3.23,0,0,0,1,2.06,3.05,3.05,0,0,0,2.08.69,2.72,2.72,0,0,0,2.21-1,4,4,0,0,0,.8-2.66,3.72,3.72,0,0,0-.86-2.56,3,3,0,0,0-2.32-1,3.35,3.35,0,0,0-2.07.58l-.54.44Z"/><path class="cls-9" d="M306,439.32V441h-.37a5.33,5.33,0,0,0-3.76,1.4,5.89,5.89,0,0,0-1.62,3.82,4.33,4.33,0,0,1,3.43-1.45,4.12,4.12,0,0,1,3.32,1.47,6.42,6.42,0,0,1-.1,7.72,4.62,4.62,0,0,1-3.59,1.47,4.52,4.52,0,0,1-3.7-1.75,7,7,0,0,1-1.43-4.52v-.78q0-4.4,1.88-6.72a6.89,6.89,0,0,1,5.58-2.37Zm-2.66,7.17a3.38,3.38,0,0,0-3.12,2.18v.75a5.24,5.24,0,0,0,.88,3.17,2.66,2.66,0,0,0,2.21,1.2,2.58,2.58,0,0,0,2.15-1,4.83,4.83,0,0,0,0-5.28A2.53,2.53,0,0,0,303.29,446.49Z"/><path class="cls-9" d="M321.08,453.81a2.9,2.9,0,0,0,1.89-.66,2.25,2.25,0,0,0,.89-1.63h1.92a3.7,3.7,0,0,1-.7,1.93,4.63,4.63,0,0,1-1.72,1.46,5.24,5.24,0,0,1-6.12-1.06,6.4,6.4,0,0,1-1.43-4.41v-.34a7.14,7.14,0,0,1,.63-3.07,4.89,4.89,0,0,1,1.82-2.09,5.23,5.23,0,0,1,2.81-.74,4.71,4.71,0,0,1,3.3,1.19,4.24,4.24,0,0,1,1.41,3.09h-1.92a2.74,2.74,0,0,0-.86-1.88,2.7,2.7,0,0,0-1.93-.74,2.82,2.82,0,0,0-2.39,1.11,5.18,5.18,0,0,0-.85,3.21v.38a5.13,5.13,0,0,0,.84,3.15A2.87,2.87,0,0,0,321.08,453.81Z"/><path class="cls-9" d="M330,443.42l.06,1.31a4.35,4.35,0,0,1,3.51-1.53,3.36,3.36,0,0,1,3.37,1.9,4.39,4.39,0,0,1,3.77-1.9q3.9,0,4,4.12v7.92h-2v-7.8a2.7,2.7,0,0,0-.58-1.9,2.57,2.57,0,0,0-1.95-.63,2.69,2.69,0,0,0-1.87.68,2.72,2.72,0,0,0-.86,1.8v7.85h-2v-7.75a2.26,2.26,0,0,0-2.53-2.58,2.71,2.71,0,0,0-2.72,1.7v8.63h-2V443.42Z"/></g></g></svg>