<svg xmlns="http://www.w3.org/2000/svg" viewBox="0 0 550.3 456.39"><defs><style>.cls-1{isolation:isolate;}.cls-2,.cls-5{fill:#fff;}.cls-2,.cls-4{stroke:#4d4c4c;stroke-linecap:round;stroke-linejoin:round;}.cls-3,.cls-9{fill:#dddfe4;opacity:0.52;}.cls-4{fill:#e8d45d;}.cls-6{fill:#c89624;}.cls-7{fill:#f8f7f7;}.cls-8{fill:#4d4c4c;}.cls-9{mix-blend-mode:multiply;}</style></defs><g class="cls-1"><g id="Ebene_1" data-name="Ebene 1"><rect class="cls-2" x="271.88" y="-20.1" width="5.07" height="405.28" transform="translate(91.88 456.96) rotate(-90)"/><path class="cls-3" d="M503.65,425.79c0,9.61-41,8.47-201.11,8.47s-252.78-.33-255-9.47,102-10.4,234.77-11.67S503.64,409.35,503.65,425.79Z"/><rect class="cls-2" x="271.88" y="125.01" width="5.07" height="405.28" transform="translate(-53.23 602.07) rotate(-90)"/><rect class="cls-2" x="271.88" y="52.46" width="5.07" height="405.28" transform="translate(19.32 529.52) rotate(-90)"/><rect class="cls-2" x="271.88" y="-92.66" width="5.07" height="405.28" transform="translate(164.44 384.4) rotate(-90)"/><rect class="cls-2" x="271.88" y="-165.21" width="5.07" height="405.28" transform="translate(237 311.85) rotate(-90)"/><rect class="cls-2" x="263.96" y="210.57" width="20.93" height="405.28" transform="translate(-138.79 687.63) rotate(-90)"/><rect class="cls-2" x="271.88" y="197.57" width="5.07" height="405.28" transform="translate(-125.79 674.63) rotate(-90)"/><rect class="cls-2" x="66.71" y="34.89" width="5.07" height="388.79"/><rect class="cls-2" x="477.06" y="34.89" width="5.07" height="388.79"/><rect class="cls-2" x="374.47" y="34.89" width="5.07" height="388.79"/><rect class="cls-2" x="271.88" y="34.89" width="5.07" height="388.79"/><rect class="cls-2" x="169.3" y="34.89" width="5.07" height="388.79"/><rect class="cls-4" x="71.78" y="39.96" width="97.51" height="140.04"/><rect class="cls-4" x="174.37" y="330.19" width="97.51" height="67.48"/><rect class="cls-4" x="379.55" y="112.52" width="97.51" height="67.48"/><path class="cls-5" d="M326.46,237.48a18.26,18.26,0,1,1,18.25-18.26A18.28,18.28,0,0,1,326.46,237.48Z"/><path class="cls-6" d="M326.46,202a17.26,17.26,0,1,1-17.26,17.25A17.25,17.25,0,0,1,326.46,202m0-2a19.26,19.26,0,1,0,19.25,19.25A19.28,19.28,0,0,0,326.46,200Z"/><line class="cls-2" x1="318.42" y1="219.22" x2="334.49" y2="219.22"/><line class="cls-2" x1="326.46" y1="211.19" x2="326.46" y2="227.26"/><path class="cls-7" d="M329.7,233.24A17.26,17.26,0,0,1,316,205.51a17.25,17.25,0,1,0,24.18,24.18A17.2,17.2,0,0,1,329.7,233.24Z"/><polygon class="cls-8" points="352.15 257.63 344.84 252.56 324.36 252.56 325.28 257.63 352.15 257.63"/><polygon class="cls-8" points="374.78 309.53 379.85 308.61 379.85 284.02 374.78 284.36 374.78 309.53"/><polygon class="cls-8" points="355.54 330.19 359.42 324.76 337.41 324.76 338.39 330.19 355.54 330.19"/><path class="cls-8" d="M271.79,232.85l5.47-1v-4.51l-5.47,1v-37.5l5.47,3.79v-5.4l-5.47-3.79m26.4,72.19,3.52-5.07h-5.4l-3.52,5.07m87.06-48.82-5.07.92v4.51l5.07-.92M310.53,180l.91,5.08H316L315,180h31.61l-3.52,5.08h5.41l3.52-5.08"/><polygon class="cls-8" points="329.16 223.68 328.55 236.82 331.48 236.48 329.16 223.68"/><path class="cls-2" d="M310,124.26a2.22,2.22,0,0,0-1.79,2.58l10.94,60.54a2.22,2.22,0,1,0,4.37-.79l-10.94-60.54A2.23,2.23,0,0,0,310,124.26Z"/><path class="cls-2" d="M298.38,222.75A2.23,2.23,0,0,0,295.8,221l-60.54,10.95a2.22,2.22,0,1,0,.79,4.36l60.54-10.94A2.22,2.22,0,0,0,298.38,222.75Z"/><path class="cls-2" d="M417.59,199l-60.54,10.94a2.22,2.22,0,0,0,.79,4.37l60.54-10.94a2.22,2.22,0,1,0-.79-4.37Z"/><path class="cls-2" d="M307.26,241.92l-35.07,50.54a2.22,2.22,0,0,0,2.22,3.45,2.19,2.19,0,0,0,1.43-.92l35.07-50.54a2.22,2.22,0,0,0-3.65-2.53Z"/><path class="cls-2" d="M345,194.23a2.23,2.23,0,0,0,1.43-.92l35.07-50.55a2.22,2.22,0,0,0-3.65-2.53l-35.07,50.55a2.22,2.22,0,0,0,2.22,3.45Z"/><path class="cls-2" d="M252,163a2.22,2.22,0,1,0-2.53,3.64L300,201.7a2.22,2.22,0,0,0,3.09-.56,2.22,2.22,0,0,0-.56-3.09Z"/><polygon class="cls-2" points="424.62 289.42 329.88 223.68 350.31 336.73 378.08 297.83 424.62 289.42"/><path class="cls-9" d="M349.89,335.91l-13.55-78.27s22.76,36,48.64,38.15l-7.44,1.75Z"/></g></g></svg>