<svg id="Ebene_1" data-name="Ebene 1" xmlns="http://www.w3.org/2000/svg" viewBox="0 0 70.87 70.87"><defs><style>.cls-1{fill:#fff;}.cls-1,.cls-2{stroke:#000;stroke-linecap:round;stroke-linejoin:round;stroke-width:0.5px;}.cls-2{fill:none;}</style></defs><title>Icons</title><rect class="cls-1" x="24.35" y="11.55" width="22.16" height="49.51" transform="translate(71.74 0.87) rotate(90)"/><rect class="cls-2" x="21.17" y="9.37" width="28.53" height="54.46" transform="translate(72.03 1.17) rotate(90)"/><polygon class="cls-1" points="10.93 25.22 5.73 31.69 8.2 50.59 62.66 50.59 65.13 31.69 59.94 25.22 10.93 25.22"/><polygon class="cls-1" points="13.46 25.42 8.27 31.89 10.54 50.59 60.67 50.59 62.6 31.69 57.4 25.22 13.46 25.42"/><rect class="cls-2" x="26.48" y="14.09" width="17.92" height="40.17" transform="translate(69.61 -1.26) rotate(90)"/><rect class="cls-1" x="25" y="12.42" width="20.86" height="59.4" transform="translate(77.55 6.68) rotate(90)"/><line class="cls-1" x1="31.5" y1="37.44" x2="39.36" y2="37.44"/><polygon class="cls-1" points="65.13 31.69 5.73 31.69 7.27 29.78 63.6 29.78 65.13 31.69"/></svg>