<?xml version="1.0" encoding="UTF-8"?>
<svg width="48px" height="48px" viewBox="0 0 48 48" version="1.1" xmlns="http://www.w3.org/2000/svg" xmlns:xlink="http://www.w3.org/1999/xlink">
    <title>Icon / Kleiderbuegel 48</title>
    <g id="Icon-/-Kleiderbuegel-48" stroke="none" stroke-width="1" fill="none" fill-rule="evenodd">
        <g id="Icon" transform="translate(0.116640, 0.000000)" fill-rule="nonzero">
            <path d="M1.6159207,31.6626872 C0.630112269,32.1227311 0,33.1121311 0,34.2 C0,35.7463973 1.2536027,37 2.8,37 L43.157587,36.9935149 C44.1691572,36.9246384 45.0710503,36.311899 45.5040329,35.3840793 C46.1579818,33.9827601 45.5521185,32.3166361 44.1507994,31.6626872 L22.88336,22 C8.82842332,28.3842253 1.73927687,31.605121 1.6159207,31.6626872 Z" id="Path" fill="#FFD24D" style="mix-blend-mode: multiply;"></path>
            <path d="M22.8273787,21.3879422 C10.871441,26.8180896 4.80095496,29.5763379 4.6159207,29.6626872 C3.63011227,30.1227311 3,31.1121311 3,32.2 C3,33.7463973 4.2536027,35 5.8,35 L46.157587,34.9935149 C47.1691572,34.9246384 48.0710503,34.311899 48.5040329,33.3840793 C49.1579818,31.9827601 48.5521185,30.3166361 47.1507994,29.6626872 C38.1480854,25.5723777 31.3960499,22.5046456 26.8946929,20.4594908 C25.88336,20 25.88336,20 25.88336,19.0429934 C25.88336,18.1643523 25.88336,17.2343202 25.88336,17 C25.88336,16.3333337 26.5788993,15.9542445 26.9050333,15.868339 C28.6192529,15.4168039 29.88336,13.856026 29.88336,12 C29.88336,9.790861 28.092499,8 25.88336,8 C23.674221,8 21.88336,9.790861 21.88336,12" id="Path" stroke="#000000" stroke-width="1.2" stroke-linecap="round" stroke-linejoin="round"></path>
        </g>
    </g>
</svg>