<?xml version="1.0" encoding="UTF-8"?>
<svg width="240px" height="68px" viewBox="0 0 240 68" version="1.1" xmlns="http://www.w3.org/2000/svg" xmlns:xlink="http://www.w3.org/1999/xlink">
    <title>5589A698-9D80-48B0-BBCB-12CCCAD56CAC</title>
    <g id="---------↳--🖥--Home" stroke="none" stroke-width="1" fill="none" fill-rule="evenodd">
        <g id="Pickawood---Shop---Home---1920" transform="translate(0.000000, -40.000000)" fill="#000000" fill-rule="nonzero">
            <g id="logo" transform="translate(0.000000, 40.000000)">
                <path d="M240,0 L240,68 L0,68 L0,0 L240,0 Z M78,24 L68,24 C62.4282744,24.0414938 58,28.5020747 58,34 C58,39.4979253 62.4490644,43.9585061 68,44 L78,44 L73.5555556,34 L78,24 Z M36.2222222,24 L24,24 L24,44 L32.8888889,44 L32.8888889,38.4444444 L36.2222222,38.4444444 C40.6875972,38.5738044 44,35.3097714 44,31.7777778 C44.0208972,27.2640333 40.708694,24 36.2222222,24 Z M101,24 L83,24 L83,44 L101,44 L96.5,34 L101,24 Z M54,24 L46,24 L46,44 L54,44 L54,24 Z M159,24 C153.479167,24 149,28.4791667 149,34 C149,39.5208333 153.479167,44 159,44 C164.520833,44 169,39.5208333 169,34 C168.979167,28.4791667 164.5,24 159,24 Z M182,24 C176.479167,24 172,28.4791667 172,34 C172,39.5208333 176.479167,44 182,44 C187.520833,44 192,39.5208333 192,34 C191.979167,28.4791667 187.520833,24 182,24 Z M148,24 L121,24 L131.125,44 L134.5,36.2222222 L137.875,44 L148,24 Z M113,24 L103,44 L123,44 L113,24 Z M218.4,10 L215.04,12.2666667 L215.04,12.2666667 L215.04,12.2666667 C213.571429,12.3681592 212.918367,13.5310945 212.8,14.5333333 L208.32,16.8 L213.92,15.6666667 C213.918367,16.9564677 214.77551,17.4639304 216.16,17.9333333 C213.469388,19.1977612 212.061224,21.6716418 212.8,23.6 C213.693877,24.7164179 214.693877,25.5833333 216.16,27 L213.92,28.1333333 C211.938775,25.4564677 208.897959,23.6169154 204.96,23.6 L196,23.6 L196,44 L204.96,44 C210.877551,44 215.285714,39.4328358 215.04,33.8 C215.285714,31.9689053 214.816327,30.2562188 213.92,29.2666667 L217.28,27 C217.632653,27.2537313 218.571429,27.6977612 219.52,28.1333333 C220.816326,29.7064677 222.265306,31.4825872 224,33.8 L221.76,29.2666667 C222.693878,29.3681592 223.22449,29.5796021 224,29.2666667 C220.326531,23.3208955 218.102041,19.1343284 217.28,16.8 C218.489796,16.5758706 219.122449,14.8208955 218.4,13.4 C218.22449,12.7276119 217.795918,12.2624378 217.28,12.2666667 C218.244898,11.2263682 218.836735,10.4228856 218.4,10 Z M216,14 C216.069784,14.5569784 215.955827,14.8418702 216,15 C215.443022,15.0697837 215.15813,14.955827 215,15 C214.930216,14.4430216 215.044173,14.1581298 215,14 C215.556978,13.9302163 215.84187,14.044173 216,14 Z" id="ic_pkw-logo"></path>
            </g>
        </g>
    </g>
</svg>