<svg id="Ebene_1" data-name="Ebene 1" xmlns="http://www.w3.org/2000/svg" viewBox="0 0 70.87 70.87"><defs><style>.cls-1{fill:#fff;}.cls-1,.cls-2{stroke:#010101;stroke-linecap:round;stroke-linejoin:round;stroke-width:0.5px;}.cls-2{fill:none;}</style></defs><title>Icons</title><path class="cls-1" d="M65.48,26.92,45.87,15.34v0L27.38,4.42l-22,39,5.21,3.08v0l0,0L13,47.91h0l13,7.68,0,0,0,0,3.9,2.31,0,0,0,0,13.58,8Z"/><path id="Path-2-Copy-3" class="cls-2" d="M34.38,8.62s-4,8.1-6.5,10.9a29.82,29.82,0,0,0-4.5,6c-2,3.5-2.1,5.8-3.1,9.2-1.2,4.1-7.3,13.2-7.3,13.2"/><path id="Path-2-Copy-4" class="cls-2" d="M31.68,7.12s-3.5,7.3-6.1,10.1a29.82,29.82,0,0,0-4.5,6c-2,3.5-2.1,5.8-3.1,9.2-1.2,4.1-7.4,14.1-7.4,14.1"/><path id="Path-2" class="cls-2" d="M42.08,13.12s-5.2,9.5-7.7,12.2-5.3,3.6-6.5,5.7c-2,3.5-.7,5.7-1.7,9.1C25,44.22,20,52,20,52"/><path id="Path-2-Copy" class="cls-2" d="M45.88,15.32s-4.6,6.6-5.7,10.2-.5,6.4-1.7,8.4c-2,3.5-4.6,3.4-7.1,6-2.9,3.1-8.8,13.6-8.8,13.6"/><path id="Path-2-Copy-2" class="cls-2" d="M49.48,17.52s-4.6,6.7-5.8,10.3-.5,6.4-1.7,8.4c-2,3.5-4.6,3.4-7.1,6C32,45.32,26,55.62,26,55.62"/><path id="Path-3" class="cls-2" d="M30.78,32.52a6.12,6.12,0,0,0-.6,4c.1.4,4.4-3.1,5.2-4.8.2-.5.9-1.6.6-1.9s-2.1.4-3,.9C31.58,31.52,31.18,31.72,30.78,32.52Z"/><path id="Path-2-Copy-5" class="cls-2" d="M53.18,20.22s-4.6,6.7-5.7,10.3a31.63,31.63,0,0,1-2.9,6.9c-2,3.5-3.9,4.7-6.4,7.3-3,3.1-8.3,13.2-8.3,13.2"/><path id="Path-2-Copy-3-2" data-name="Path-2-Copy-3" class="cls-2" d="M58,22.52s-5.3,7.9-6.4,11.5a31.63,31.63,0,0,1-2.9,6.9c-2,3.5-3.9,4.7-6.4,7.3-2.9,3.1-7.7,12.2-7.7,12.2"/><path id="Path-2-Copy-4-2" data-name="Path-2-Copy-4" class="cls-2" d="M61.38,24.52s-5.3,7.6-6.4,11.2a31.63,31.63,0,0,1-2.9,6.9c-2,3.5-3.9,4.7-6.4,7.3-3,3-7.8,12.2-7.8,12.2"/><path id="Path-2-2" data-name="Path-2" class="cls-2" d="M38.88,11.32s-4.7,9.4-7.2,12.2-5.3,3.6-6.5,5.7c-2,3.5-.7,5.7-1.7,9.1-1.2,4.1-6.3,11.8-6.3,11.8"/><polyline class="cls-2" points="43.48 65.92 5.38 43.42 27.38 4.42 65.48 26.92 43.48 65.92 5.38 43.42 27.38 4.42"/></svg>