<?xml version="1.0" encoding="UTF-8" standalone="no"?>
<!DOCTYPE svg PUBLIC "-//W3C//DTD SVG 1.1//EN" "http://www.w3.org/Graphics/SVG/1.1/DTD/svg11.dtd">
<svg width="100%" height="100%" viewBox="0 0 28 27" version="1.1" xmlns="http://www.w3.org/2000/svg" xmlns:xlink="http://www.w3.org/1999/xlink" xml:space="preserve" xmlns:serif="http://www.serif.com/" style="fill-rule:evenodd;clip-rule:evenodd;stroke-linecap:round;stroke-linejoin:round;">
    <g transform="matrix(1,0,0,1,-762.479,-1325.27)">
        <g transform="matrix(1,0,0,1,-3536.5,773.203)">
            <g transform="matrix(0.617757,0,0,0.617757,4299.05,552.138)">
                <g transform="matrix(0.898789,0.438382,-0.438382,0.898789,15.8555,-6.57474)">
                    <path d="M17.151,20.436L41.443,20.436L27.443,41.537L1.935,39.706L17.151,20.436Z" style="fill:white;fill-rule:nonzero;"/>
                </g>
                <g transform="matrix(1,0,0,-1,0,62.101)">
                    <path d="M22.312,42.789L44.145,32.14L22.312,19.312L0.188,32.14L22.312,42.789ZM22.312,42.789L22.312,42.789" style="fill:none;fill-rule:nonzero;stroke:rgb(1,1,1);stroke-width:0.61px;"/>
                </g>
                <g transform="matrix(0.878924,-0.476961,0.476961,0.878924,-8.55097,19.0406)">
                    <path d="M22.096,23.989L46.937,23.989L44.647,28.209L19.52,28.737L22.096,23.989Z" style="fill:white;fill-rule:nonzero;"/>
                </g>
                <g transform="matrix(1,0,0,-1,0,52.726)">
                    <path d="M22.312,23.14L44.145,34.988L44.145,30.187L22.312,17.738L22.312,23.14ZM22.312,23.14L22.312,23.14" style="fill:none;fill-rule:nonzero;stroke:rgb(1,1,1);stroke-width:0.61px;"/>
                </g>
                <g transform="matrix(-0.881549,-0.472093,0.472093,-0.881549,8.72163,54.9143)">
                    <path d="M-0.023,28.744L25.073,28.744L22.807,24.512L-2.573,23.982L-0.023,28.744Z" style="fill:white;fill-rule:nonzero;"/>
                </g>
                <g transform="matrix(1,0,0,-1,0,52.726)">
                    <path d="M22.312,23.14L0.188,34.988L0.188,30.187L22.312,17.738L22.312,23.14ZM22.312,23.14L22.312,23.14" style="fill:none;fill-rule:nonzero;stroke:rgb(1,1,1);stroke-width:0.61px;"/>
                </g>
                <g transform="matrix(0.897538,0.440938,-0.440938,0.897538,10.3399,-7.89909)">
                    <path d="M17.32,8.104L41.646,8.104L27.274,28.365L2.193,27.487L17.32,8.104Z" style="fill:white;fill-rule:nonzero;"/>
                </g>
                <g transform="matrix(1,0,0,-1,0,36.598)">
                    <path d="M22.312,29.586L44.145,18.86L22.312,7.012L0.188,18.86L22.312,29.586ZM22.312,29.586L22.312,29.586" style="fill:none;fill-rule:nonzero;stroke:rgb(1,1,1);stroke-width:0.61px;"/>
                </g>
                <g transform="matrix(0.898805,0.438349,-0.438349,0.898805,7.32273,-8.54401)">
                    <path d="M17.3,1.278L41.591,1.278L27.294,21.771L2.082,20.546L17.3,1.278Z" style="fill:white;fill-rule:nonzero;"/>
                </g>
                <g transform="matrix(1,0,0,-1,0,23.176)">
                    <path d="M22.312,22.988L44.145,12.34L22.312,0.188L0.188,12.34L22.312,22.988ZM22.312,22.988L22.312,22.988" style="fill:none;fill-rule:nonzero;stroke:rgb(1,1,1);stroke-width:0.61px;"/>
                </g>
                <g transform="matrix(0.574866,-0.818248,0.818248,0.574866,-4.16015,19.821)">
                    <path d="M15.739,1.69C15.739,1.69 16.217,6.671 15.913,8.718C15.668,10.055 15.611,11.422 15.739,12.779C15.896,14.96 16.527,15.987 17.176,17.822C17.872,19.988 18.25,26.138 18.25,26.138" style="fill:none;fill-rule:nonzero;stroke:rgb(1,1,1);stroke-width:0.61px;"/>
                </g>
                <g transform="matrix(0.546555,-0.837423,0.837423,0.546555,-6.2267,18.8015)">
                    <path d="M13.262,2.866C13.262,2.866 13.865,8.084 13.572,10.066C13.284,11.397 13.181,12.761 13.262,14.122C13.345,16.307 13.938,17.352 14.524,19.208C15.148,21.399 15.234,27.435 15.234,27.435" style="fill:none;fill-rule:nonzero;stroke:rgb(1,1,1);stroke-width:0.61px;"/>
                </g>
                <g transform="matrix(0.371555,-0.928411,0.928411,0.371555,10.4988,31.334)">
                    <path d="M29.395,-4.122C29.395,-4.122 28.783,0.406 29.091,2.383C29.353,3.7 29.457,5.042 29.395,6.38C29.287,8.527 28.686,9.655 28.13,11.493C27.475,13.695 27.394,19.946 27.394,19.946" style="fill:none;fill-rule:nonzero;stroke:rgb(1,1,1);stroke-width:0.61px;"/>
                </g>
                <g transform="matrix(0.36528,-0.930898,0.930898,0.36528,7.77065,29.9976)">
                    <path d="M26.877,-3.053C26.877,-3.053 26.205,1.802 26.596,3.826C26.851,5.139 26.943,6.484 26.877,7.823C26.749,9.967 26.144,11.091 25.573,12.926C24.906,15.122 24.889,21.654 24.889,21.654" style="fill:none;fill-rule:nonzero;stroke:rgb(1,1,1);stroke-width:0.61px;"/>
                </g>
                <g transform="matrix(0.341743,-0.939793,0.939793,0.341743,13.4993,33.074)">
                    <path d="M31.573,-5.233C31.338,-3.652 31.28,-2.05 31.393,-0.458C31.617,0.865 31.677,2.21 31.573,3.545C31.396,5.688 30.76,6.796 30.145,8.615C29.351,10.821 29.146,19.034 29.146,19.034" style="fill:none;fill-rule:nonzero;stroke:rgb(1,1,1);stroke-width:0.61px;"/>
                </g>
                <g transform="matrix(1,0,0,-1,0,23.102)">
                    <path d="M21.945,10.239C22.781,10.086 23.648,10.278 24.344,10.766C24.57,10.914 21.645,12.715 20.52,12.864C20.219,12.864 19.395,13.016 19.32,12.79C19.172,12.414 19.996,11.664 20.445,11.215C20.844,10.758 21.363,10.418 21.945,10.239ZM21.945,10.239L21.945,10.239" style="fill:none;fill-rule:nonzero;stroke:rgb(1,1,1);stroke-width:0.61px;"/>
                </g>
                <g transform="matrix(0.329066,-0.944307,0.944307,0.329066,4.9739,28.8245)">
                    <path d="M24.791,-1.07C24.791,-1.07 23.751,4.376 23.849,6.485C23.947,8.594 24.964,9.91 24.791,11.24C24.465,13.497 23.048,13.991 22.293,15.921C21.399,18.14 20.752,22.894 20.752,22.894" style="fill:none;fill-rule:nonzero;stroke:rgb(1,1,1);stroke-width:0.61px;"/>
                </g>
                <g transform="matrix(0.648823,-0.760939,0.760939,0.648823,-2.06727,19.8956)">
                    <path d="M18.477,0.427C18.903,2.805 19.174,5.208 19.287,7.621C19.167,9.792 18.261,11.156 18.477,12.45C18.885,14.663 20.285,15.149 21.046,16.963C22.04,19.17 22.566,23.948 22.566,23.948" style="fill:none;fill-rule:nonzero;stroke:rgb(1,1,1);stroke-width:0.61px;"/>
                </g>
            </g>
        </g>
    </g>
</svg>
