<?xml version="1.0" encoding="UTF-8" standalone="no"?>
<!DOCTYPE svg PUBLIC "-//W3C//DTD SVG 1.1//EN" "http://www.w3.org/Graphics/SVG/1.1/DTD/svg11.dtd">
<svg width="100%" height="100%" viewBox="0 0 39 39" version="1.1" xmlns="http://www.w3.org/2000/svg" xmlns:xlink="http://www.w3.org/1999/xlink" xml:space="preserve" xmlns:serif="http://www.serif.com/" style="fill-rule:evenodd;clip-rule:evenodd;stroke-linecap:round;stroke-linejoin:round;">
    <g transform="matrix(1,0,0,1,-13555.1,-2404.92)">
        <g transform="matrix(1.25928,0,0,1.68632,9920.77,1883.22)">
            <g transform="matrix(1.27728,0,0,0.953829,-1249.79,-429.846)">
                <clipPath id="_clip1">
                    <circle cx="3250" cy="787" r="12"/>
                </clipPath>
                <g clip-path="url(#_clip1)">
                    <g opacity="0.25">
                        <circle cx="3250" cy="787" r="12" style="fill:rgb(241,241,242);"/>
                        <clipPath id="_clip2">
                            <circle cx="3250" cy="787" r="12"/>
                        </clipPath>
                        <g clip-path="url(#_clip2)">
                            <g transform="matrix(0.621714,0,0,0.621714,3237.88,773.596)">
                                <g transform="matrix(-1,-7.65714e-16,7.65714e-16,-1,70.87,70.87)">
                                    <rect x="26.93" y="26.93" width="17.01" height="17.01" style="fill:none;stroke:rgb(29,29,27);stroke-width:0.5px;"/>
                                </g>
                                <g transform="matrix(-1,-7.65714e-16,7.65714e-16,-1,36.85,70.87)">
                                    <rect x="9.92" y="26.93" width="17.01" height="17.01" style="fill:none;stroke:rgb(29,29,27);stroke-width:0.5px;"/>
                                </g>
                                <g transform="matrix(-1,-7.65714e-16,7.65714e-16,-1,70.87,36.85)">
                                    <rect x="26.93" y="9.92" width="17.01" height="17.01" style="fill:none;stroke:rgb(29,29,27);stroke-width:0.5px;"/>
                                </g>
                                <g transform="matrix(-1,-7.65714e-16,7.65714e-16,-1,36.85,36.85)">
                                    <rect x="9.92" y="9.92" width="17.01" height="17.01" style="fill:none;stroke:rgb(29,29,27);stroke-width:0.5px;"/>
                                </g>
                                <path d="M62.44,62.45L25.44,62.45L25.44,8.45L62.44,8.45L62.44,62.45ZM28.44,59.45L59.44,59.45L59.44,11.45L28.44,11.45L28.44,59.45Z" style="fill:rgb(29,29,27);fill-rule:nonzero;"/>
                                <path d="M45.44,62.45L8.44,62.45L8.44,8.45L45.44,8.45L45.44,62.45ZM11.44,59.45L42.44,59.45L42.44,11.45L11.44,11.45L11.44,59.45Z" style="fill:rgb(29,29,27);fill-rule:nonzero;"/>
                                <rect x="8.42" y="9.92" width="3" height="51.02" style="fill:white;stroke:rgb(29,29,27);stroke-width:0.5px;"/>
                                <rect x="11.42" y="26" width="48.02" height="1.75" style="fill:white;stroke:rgb(29,29,27);stroke-width:0.5px;"/>
                                <rect x="25.43" y="9.92" width="3" height="51.02" style="fill:white;stroke:rgb(29,29,27);stroke-width:0.5px;"/>
                                <g transform="matrix(-3.82857e-16,1,-1,-3.82857e-16,45.35,-25.51)">
                                    <rect x="33.93" y="-17.09" width="3" height="54.02" style="fill:white;stroke:rgb(29,29,27);stroke-width:0.5px;"/>
                                </g>
                            </g>
                        </g>
                    </g>
                </g>
            </g>
        </g>
    </g>
</svg>
