<?xml version="1.0" encoding="UTF-8" standalone="no"?>
<!DOCTYPE svg PUBLIC "-//W3C//DTD SVG 1.1//EN" "http://www.w3.org/Graphics/SVG/1.1/DTD/svg11.dtd">
<svg width="100%" height="100%" viewBox="0 0 39 39" version="1.1" xmlns="http://www.w3.org/2000/svg" xmlns:xlink="http://www.w3.org/1999/xlink" xml:space="preserve" xmlns:serif="http://www.serif.com/" style="fill-rule:evenodd;clip-rule:evenodd;stroke-linecap:round;stroke-linejoin:round;">
    <g transform="matrix(1,0,0,1,-13342.3,-2404.92)">
        <g transform="matrix(1.25928,0,0,1.68632,9707.98,1883.22)">
            <g transform="matrix(1.27728,0,0,0.953829,-1249.79,-429.846)">
                <circle cx="3250" cy="787" r="12" style="fill:rgb(241,241,242);"/>
                <clipPath id="_clip1">
                    <circle cx="3250" cy="787" r="12"/>
                </clipPath>
                <g clip-path="url(#_clip1)">
                    <g transform="matrix(0.621714,0,0,0.621714,3236.61,773.204)">
                        <rect x="9.92" y="9.92" width="17.01" height="17.01" style="fill:none;stroke:rgb(29,29,27);stroke-width:0.5px;"/>
                        <rect x="26.93" y="9.92" width="17.01" height="17.01" style="fill:none;stroke:rgb(29,29,27);stroke-width:0.5px;"/>
                        <rect x="9.92" y="26.93" width="17.01" height="17.01" style="fill:none;stroke:rgb(29,29,27);stroke-width:0.5px;"/>
                        <rect x="26.93" y="26.93" width="17.01" height="17.01" style="fill:none;stroke:rgb(29,29,27);stroke-width:0.5px;"/>
                        <rect x="10.8" y="26" width="49.27" height="1.75" style="fill:white;stroke:rgb(29,29,27);stroke-width:0.5px;"/>
                        <rect x="10.8" y="43.06" width="49.27" height="1.75" style="fill:white;stroke:rgb(29,29,27);stroke-width:0.5px;"/>
                        <g transform="matrix(-3.82857e-16,1,-1,-3.82857e-16,45.35,25.51)">
                            <rect x="-15" y="34.56" width="49.84" height="1.75" style="fill:white;stroke:rgb(29,29,27);stroke-width:0.5px;"/>
                        </g>
                        <g transform="matrix(-3.82857e-16,1,-1,-3.82857e-16,62.36,8.51)">
                            <rect x="2" y="34.56" width="49.84" height="1.75" style="fill:white;stroke:rgb(29,29,27);stroke-width:0.5px;"/>
                        </g>
                        <rect x="9.05" y="9.05" width="52.77" height="1.75" style="fill:white;stroke:rgb(29,29,27);stroke-width:0.5px;"/>
                    </g>
                </g>
            </g>
        </g>
    </g>
</svg>
