<svg xmlns="http://www.w3.org/2000/svg" width="19" height="19" viewBox="0 0 19 19"><defs><style>.a{fill:#fff;}</style></defs><circle class="a" cx="9.5" cy="9.5" r="9.5"/><path d="M5051.709,1862.1c-.011-.408-1.338-.765-2.4-.969h0a1.375,1.375,0,0,1-1.014-1.038,1.979,1.979,0,0,1-.044-.222.5.5,0,0,1,.284-.553c.534-.212,1.23-.552,1.23-.936,0-.64-1.118-1.157-2.5-1.157h-.02c-1.379,0-2.5.518-2.5,1.157,0,.384.7.724,1.228.936a.5.5,0,0,1,.286.553,2.1,2.1,0,0,1-.045.222,1.372,1.372,0,0,1-1.015,1.038h0c-1.06.2-2.386.561-2.4.969v5.923h0v.01c0,.639,1.987,1.158,4.44,1.158h.02c2.451,0,4.439-.519,4.439-1.158v-.01h0Z" transform="translate(-5037.595 -1854.103)"/></svg>