<?xml version="1.0" encoding="UTF-8" standalone="no"?>
<!DOCTYPE svg PUBLIC "-//W3C//DTD SVG 1.1//EN" "http://www.w3.org/Graphics/SVG/1.1/DTD/svg11.dtd">
<svg width="100%" height="100%" viewBox="0 0 27 27" version="1.1" xmlns="http://www.w3.org/2000/svg" xmlns:xlink="http://www.w3.org/1999/xlink" xml:space="preserve" xmlns:serif="http://www.serif.com/" style="fill-rule:evenodd;clip-rule:evenodd;stroke-linecap:round;stroke-linejoin:round;">
    <g transform="matrix(1,0,0,1,-4319.38,-1333.12)">
        <g transform="matrix(1,0,0,1,21.3899,781.964)">
            <g transform="matrix(0.0511405,0,0,0.0511405,4298.24,551.408)">
                <path d="M78.6,5C69.1,-2.4 55.6,-1.5 47,7L7,47C-1.5,55.5 -2.4,69 4.9,78.6L84.9,182.6C89.4,188.5 96.5,192 103.9,192L158,192L267,301C252.3,330 257,366.4 281.3,390.6L393.3,502.6C405.8,515.1 426.1,515.1 438.6,502.6L502.6,438.6C515.1,426.1 515.1,405.8 502.6,393.3L390.6,281.3C366.4,257.1 330,252.3 301,267L192,158L192,104C192,96.5 188.5,89.5 182.6,85L78.6,5ZM19.9,396.1C7.2,408.8 0,426.1 0,444.1C0,481.6 30.4,512 67.9,512C85.9,512 103.2,504.8 115.9,492.1L233.7,374.3C225.9,353.4 224.7,330.7 230.1,309.2L168.4,247.5L19.9,396.1ZM512,144C512,133.5 510.9,123.3 508.8,113.5C506.4,102.3 492.7,99.4 484.6,107.5L420.7,171.4C417.7,174.4 413.6,176.1 409.4,176.1L352,176.1C343.2,176.1 336,168.9 336,160.1L336,102.6C336,98.4 337.7,94.3 340.7,91.3L404.6,27.4C412.7,19.3 409.8,5.6 398.6,3.2C388.7,1.1 378.5,0 368,0C288.5,0 224,64.5 224,144L224,144.8L309.3,230.1C345.3,221 385.1,230.6 413.3,258.8L429,274.5C478,251.5 512,201.7 512,144ZM56,432C56,418.834 66.834,408 80,408C93.166,408 104,418.834 104,432C104,445.166 93.166,456 80,456C66.834,456 56,445.166 56,432Z" style="fill:white;fill-rule:nonzero;stroke:rgb(29,29,27);stroke-width:9.78px;"/>
            </g>
        </g>
    </g>
</svg>
