<svg id="Ebene_1" data-name="Ebene 1" xmlns="http://www.w3.org/2000/svg" viewBox="0 0 70.87 70.87"><defs><style>.cls-1,.cls-3{fill:none;}.cls-1,.cls-2,.cls-3{stroke:#000;stroke-linecap:round;stroke-linejoin:round;}.cls-1,.cls-2{stroke-width:0.5px;}.cls-2{fill:#fff;}.cls-3{stroke-width:0.25px;stroke-dasharray:1 1 6 1 3 1;}</style></defs><title>ICONS</title><rect class="cls-1" x="11.79" y="7.55" width="48.13" height="44.44"/><rect class="cls-1" x="9.38" y="5.33" width="52.94" height="48.89"/><polygon class="cls-2" points="27.31 64.49 11.79 51.99 11.79 7.55 27.31 20.04 27.31 64.49"/><line class="cls-1" x1="23.63" y1="38.7" x2="23.63" y2="44.58"/><polygon class="cls-2" points="11.79 7.55 14.51 7.55 29.45 19.39 27.31 20.04 11.79 7.55"/><polygon class="cls-2" points="27.31 64.52 29.45 63.83 29.45 19.39 27.31 20.04 27.31 64.52"/><polygon class="cls-2" points="44.39 64.49 59.92 51.99 59.92 7.55 44.39 20.04 44.39 64.49"/><line class="cls-1" x1="48.08" y1="38.7" x2="48.08" y2="44.58"/><polygon class="cls-2" points="59.92 7.55 57.2 7.55 42.25 19.39 44.39 20.04 59.92 7.55"/><polygon class="cls-2" points="44.39 64.52 42.25 63.83 42.25 19.39 44.39 20.04 44.39 64.52"/><line class="cls-3" x1="55.34" y1="29.51" x2="52" y2="48.62"/><line class="cls-3" x1="15.77" y1="25.99" x2="21.86" y2="50.49"/><line class="cls-3" x1="18.26" y1="49.11" x2="14.9" y2="35.6"/></svg>