<svg id="Ebene_1" data-name="Ebene 1" xmlns="http://www.w3.org/2000/svg" viewBox="0 0 70.87 70.87"><defs><style>.cls-1,.cls-4{fill:none;}.cls-1,.cls-3,.cls-4{stroke:#000;stroke-linecap:round;stroke-linejoin:round;}.cls-1,.cls-3{stroke-width:0.5px;}.cls-2{opacity:0.88;}.cls-3{fill:#fff;}.cls-4{stroke-width:0.25px;stroke-dasharray:1 1 6 1 3 1;}</style></defs><title>ICONS</title><rect class="cls-1" x="11.79" y="7.55" width="48.13" height="44.44"/><rect class="cls-1" x="9.38" y="5.33" width="52.94" height="48.89"/><g class="cls-2"><polygon class="cls-3" points="27.31 64.49 11.79 51.99 11.79 7.55 27.31 20.04 27.31 64.49"/><polygon class="cls-3" points="11.79 7.55 14.51 7.55 29.45 19.39 27.31 20.04 11.79 7.55"/><polygon class="cls-3" points="27.31 64.52 29.45 63.83 29.45 19.39 27.31 20.04 27.31 64.52"/><polygon class="cls-3" points="44.39 64.49 59.92 51.99 59.92 7.55 44.39 20.04 44.39 64.49"/><polygon class="cls-3" points="59.92 7.55 57.2 7.55 42.25 19.39 44.39 20.04 59.92 7.55"/><polygon class="cls-3" points="44.39 64.52 42.25 63.83 42.25 19.39 44.39 20.04 44.39 64.52"/></g><line class="cls-1" x1="23.63" y1="38.7" x2="23.63" y2="44.58"/><line class="cls-1" x1="48.08" y1="38.7" x2="48.08" y2="44.58"/><g class="cls-2"><line class="cls-4" x1="55.07" y1="29.55" x2="51.73" y2="48.66"/><line class="cls-4" x1="15.5" y1="26.03" x2="21.59" y2="50.53"/><line class="cls-4" x1="17.99" y1="49.15" x2="14.63" y2="35.64"/></g></svg>