<svg id="Ebene_1" data-name="Ebene 1" xmlns="http://www.w3.org/2000/svg" viewBox="0 0 70.87 70.87"><defs><style>.cls-1{fill:#fff;}.cls-1,.cls-2{stroke:#010101;stroke-linecap:round;stroke-linejoin:round;stroke-width:0.5px;}.cls-2{fill:none;}</style></defs><title>Icons</title><polygon id="path-1" class="cls-1" points="35.92 32.27 65.03 46.47 35.92 63.57 6.42 46.47 35.92 32.27"/><polygon id="Rectangle-6" class="cls-1" points="35.92 45.97 65.03 30.17 65.03 36.57 35.92 53.17 35.92 45.97"/><polygon id="Rectangle-6-2" data-name="Rectangle-6" class="cls-1" points="35.92 45.97 6.42 30.17 6.42 36.57 35.92 53.17 35.92 45.97"/><polygon id="path-3" class="cls-1" points="35.92 15.87 65.03 30.17 35.92 45.97 6.42 30.17 35.92 15.87"/><polygon id="path-5" class="cls-1" points="35.92 6.77 65.03 20.97 35.92 37.17 6.42 20.97 35.92 6.77"/><path id="Path-2-Copy-3" class="cls-2" d="M14.53,17.07s5.8,3.3,7.8,5.2a19.74,19.74,0,0,0,4.3,3.3c2.5,1.5,4.1,1.6,6.6,2.3,2.9.9,9.9,5.2,9.9,5.2"/><path id="Path-2-Copy-4" class="cls-2" d="M10.73,18.87S17,22,19,23.77a19.74,19.74,0,0,0,4.3,3.3c2.5,1.5,4.1,1.6,6.6,2.3,2.9.9,9.7,5.2,9.7,5.2"/><path id="Path-2-Copy-3-2" data-name="Path-2-Copy-3" class="cls-2" d="M29.63,9.87s5.3,3,7.9,3.6a22,22,0,0,1,5.1,1.6c2.6,1.2,3.7,2.5,5.7,4.1,2.4,1.9,10.1,5.1,10.1,5.1"/><path id="Path-2-Copy-3-3" data-name="Path-2-Copy-3" class="cls-2" d="M25.83,11.67s5.7,3.2,8.4,3.7a22,22,0,0,1,5.1,1.6c2.6,1.2,3.7,2.5,5.7,4.1,2.4,1.9,10.5,5.1,10.5,5.1"/><path id="Path-2-Copy-4-2" data-name="Path-2-Copy-4" class="cls-2" d="M32,8.67a28.93,28.93,0,0,0,5.9,2.4,22,22,0,0,1,5.1,1.6c2.6,1.2,3.7,2.5,5.7,4.1,2.4,2,12.6,6,12.6,6"/><path id="Path-3-2" data-name="Path-3" class="cls-2" d="M35.43,23.67a4.26,4.26,0,0,0,3.2-.7c.3-.2-3.6-2.6-5.1-2.8-.4,0-1.5-.2-1.6.1-.2.5.9,1.5,1.5,2.1A4.39,4.39,0,0,0,35.43,23.67Z"/><path id="Path-2" class="cls-2" d="M22.33,13.27s6.4,3.7,9.1,4.5,4.8.1,6.4.9c2.7,1.4,2.7,3.4,4.8,5.2,2.4,2.1,8.1,5,8.1,5"/><path id="Path-2-2" data-name="Path-2" class="cls-2" d="M19.83,14.67a74,74,0,0,1,8,5.4c2.1,2,2.7,4.1,4.2,5,2.6,1.5,4.3.5,6.8,1.3,3.1.9,8.4,4.5,8.4,4.5"/></svg>