<?xml version="1.0" encoding="UTF-8"?>
<svg width="48px" height="48px" viewBox="0 0 48 48" version="1.1" xmlns="http://www.w3.org/2000/svg" xmlns:xlink="http://www.w3.org/1999/xlink">
    <title>Icon / Dachschraege 48 – 02</title>
    <g id="Icon-/-Dachschraege-48-–-02" stroke="none" stroke-width="1" fill="none" fill-rule="evenodd">
        <g id="Icon">
            <path d="M39.6976774,13.4817327 L27.6976774,20.4817327 C27.5133468,20.5892589 27.4,20.7865998 27.4,21 L27.4,47 C27.4,47.3313708 27.6686292,47.6 28,47.6 L40,47.6 C40.3313708,47.6 40.6,47.3313708 40.6,47 L40.6,14 C40.6,13.5369255 40.0976714,13.2484028 39.6976774,13.4817327 Z" id="Path" fill="#FFD24D" fill-rule="nonzero" style="mix-blend-mode: multiply;"></path>
            <path d="M7,22 L7,44 M7,22 L36,5" id="Combined-Shape" stroke="#000000" stroke-width="1.2" stroke-linecap="round" stroke-linejoin="round"></path>
            <g id="Group" transform="translate(12.000000, 11.000000)" stroke="#000000" stroke-linejoin="round" stroke-width="1.2">
                <polygon id="Stroke-1-path" fill-rule="nonzero" points="12 7 12 33 0 33 0 14"></polygon>
                <polygon id="Stroke-3-path" fill-rule="nonzero" points="24 0 24 33 12 33 12 7"></polygon>
                <line x1="6.85714286" y1="19.3529412" x2="6.85714286" y2="22.7647059" id="Line" stroke-linecap="round"></line>
                <line x1="17.1428571" y1="19.3529412" x2="17.1428571" y2="22.7647059" id="Line-Copy" stroke-linecap="round"></line>
            </g>
        </g>
    </g>
</svg>