<?xml version="1.0" encoding="UTF-8"?>
<svg width="40px" height="40px" viewBox="0 0 40 40" version="1.1" xmlns="http://www.w3.org/2000/svg" xmlns:xlink="http://www.w3.org/1999/xlink">
    <title>ic_service_saw</title>
    <g id="---------↳--🖥--Home-&amp;-Menu" stroke="none" stroke-width="1" fill="none" fill-rule="evenodd">
        <g id="Artboard" transform="translate(-778.000000, -4175.000000)" fill-rule="nonzero">
            <g id="ic_service_saw" transform="translate(778.000000, 4175.666667)">
                <path d="M24.7471094,1.68097075 L24.7974172,1.69993925 L26.8460179,2.57785205 C26.9280774,2.61331495 27.0014773,2.66609695 27.0612694,2.73207445 L27.1033301,2.78403165 L29.7923247,6.50062545 L30.6224038,4.64913255 C30.779925,4.29780245 31.209191,4.18192945 31.5188728,4.37986195 L31.5667065,4.41408775 L31.6100042,4.45120005 L33.1707839,5.91425065 C33.2404726,5.97981575 33.2940793,6.06063815 33.3274804,6.14970775 L33.3485107,6.21815945 L34.4713649,10.7903987 L36.0469896,9.41188175 C36.3426512,9.15333245 36.7900609,9.23539195 36.9834574,9.55620745 L37.0106731,9.60610295 L37.0325282,9.65723545 L37.8127118,11.7054238 C37.8424017,11.7833597 37.8560096,11.8658316 37.8531231,11.9483034 L37.8477624,12.0101573 L37.2094303,16.6355909 L39.0638098,15.932106 C39.4349331,15.7914915 39.8299732,16.0310722 39.8930642,16.4050821 L39.8996619,16.4570393 L39.9017237,16.510646 L39.9017237,18.7538803 C39.9017237,18.8462488 39.8815181,18.9369678 39.8419317,19.0194396 L39.8089429,19.0800565 L37.3492201,23.04654 L39.4002949,23.110868 C39.7994587,23.1232388 40.0724405,23.5005475 39.9829585,23.8716708 L39.9685259,23.922391 L39.9495574,23.9726988 L39.0716446,26.0212995 C39.0361817,26.103359 38.9838121,26.1767589 38.9174222,26.236551 L38.865465,26.2786117 L35.1484588,28.9676063 L36.9999518,29.7976854 C37.3516942,29.9552066 37.4675672,30.3844726 37.2696347,30.6941544 L37.2354089,30.7419881 L37.1982966,30.7852858 L35.735246,32.3460655 C35.6696809,32.4157542 35.5888585,32.4693609 35.4997889,32.502762 L35.4313372,32.5237923 L30.8586857,33.6466465 L32.2376149,35.2222712 C32.4961642,35.5179328 32.4141047,35.9653425 32.0932892,36.158739 L32.0433937,36.1859547 L31.9922612,36.2078098 L29.9440729,36.9879934 C29.866137,37.0176833 29.7836651,37.0312912 29.7011933,37.0284046 L29.6393394,37.023044 L25.0134935,36.3847119 L25.7173907,38.2395037 C25.8580052,38.6102147 25.6184245,39.0052548 25.2444146,39.0683458 L25.1924574,39.0749435 L25.1388507,39.0770053 L22.8952041,39.0770053 C22.8032479,39.0770053 22.7125289,39.0567997 22.6300571,39.0172132 L22.5694403,38.9842245 L18.6025444,36.5245017 L18.5386287,38.5755765 C18.5262579,38.9747402 18.1489492,39.2477221 17.7778259,39.1582401 L17.7271057,39.1438075 L17.6767979,39.124839 L15.6281972,38.2469262 C15.5461377,38.2114633 15.4727378,38.1586813 15.4129457,38.0927038 L15.370885,38.0407466 L12.6814781,34.3237404 L11.8518113,36.1756457 C11.6942901,36.5269758 11.2650241,36.6428488 10.9553423,36.4449163 L10.9075086,36.4106905 L10.8642109,36.3735782 L9.30343119,34.9105276 C9.23374249,34.8449625 9.18013579,34.7641401 9.14673469,34.6750705 L9.12570439,34.6066188 L8.00243779,30.0339672 L6.42681319,31.4128965 C6.13156399,31.6714458 5.68415419,31.5893863 5.49075769,31.2685708 L5.46354199,31.2186753 L5.44168699,31.1675428 L4.66150329,29.1193545 C4.63181339,29.0414186 4.61820559,28.9589467 4.62109209,28.8764749 L4.62645269,28.814621 L5.26437249,24.1887751 L3.40999299,24.8926723 C3.03928199,25.0332868 2.64424189,24.7937061 2.58115089,24.4196962 L2.57455319,24.367739 L2.57249139,24.3141323 L2.57249139,22.070898 C2.57249139,21.9785295 2.59269699,21.8878105 2.63228349,21.8053387 L2.66527219,21.7447218 L5.12458269,17.777826 L3.07392019,17.7139103 C2.67475649,17.7015395 2.40177459,17.3242308 2.49125659,16.9531075 L2.50568919,16.9023873 L2.52465769,16.8520795 L3.40257049,14.8034788 C3.43803339,14.7214193 3.49081539,14.6480194 3.55679289,14.5882273 L3.60875009,14.5461666 L7.32534389,11.8567597 L5.47385099,11.0270929 C5.12252089,10.8695717 5.00664799,10.4403057 5.20458039,10.1306239 L5.23880619,10.0827902 L5.27591849,10.0394925 L6.73896909,8.47871275 C6.80453419,8.40902405 6.88535659,8.35541735 6.97442619,8.32201625 L7.04287789,8.30098595 L11.6151171,7.17771935 L10.2366002,5.60250705 C9.97805089,5.30684545 10.0601104,4.85943575 10.3809259,4.66603925 L10.4308214,4.63882355 L10.4819539,4.61696845 L12.5301423,3.83678485 C12.6080781,3.80709495 12.69055,3.79348705 12.7730218,3.79637365 L12.8348757,3.80173425 L17.4603093,4.43965405 L16.7568244,2.58527455 C16.6162099,2.21456355 16.8557907,1.81952345 17.2298005,1.75643245 L17.2817577,1.74983475 L17.3353644,1.74777295 L19.5790111,1.74777295 C19.6709672,1.74777295 19.7616862,1.76797855 19.8441581,1.80756505 L19.9047749,1.84055375 L23.8712584,4.29986425 L23.9355864,2.24920175 C23.9483695,1.83189415 24.3603164,1.55231465 24.7471094,1.68097075 Z M21.2375199,17.4215476 C19.5856088,17.4215476 18.2466784,18.760478 18.2466784,20.4123891 C18.2466784,22.0647126 19.5851965,23.4032307 21.2375199,23.4032307 C22.8890187,23.4032307 24.2271244,22.0643003 24.2271244,20.4123891 C24.2271244,18.7608904 22.8886063,17.4215476 21.2375199,17.4215476 Z" id="yellow" fill="#FFD24D"></path>
                <path d="M21.4613215,0.599790055 C21.4738213,0.200536055 21.8510609,-0.0724438453 22.2223603,0.0170430547 L22.2729205,0.0315147547 L22.3231981,0.0506128547 L24.3717988,0.928525655 C24.4541154,0.963801855 24.5275387,1.01642085 24.5872101,1.08249615 L24.6293094,1.13451495 L27.3181692,4.85118855 L28.1483404,2.99987895 C28.3059001,2.64837995 28.7348535,2.53244535 29.0445245,2.73051885 L29.0923717,2.76441455 L29.1357846,2.80161095 L30.6965643,4.26466155 C30.7664674,4.33018765 30.8199492,4.41082175 30.8531728,4.5 L30.8742321,4.56839195 L31.9972095,9.14096165 L33.5729518,7.76248515 C33.8683021,7.50407315 34.315879,7.58592395 34.5092127,7.90686815 L34.5362551,7.95679025 L34.5582307,8.00771915 L35.3388268,10.0559075 C35.368424,10.1335671 35.3819919,10.2161897 35.3789658,10.2988226 L35.3735761,10.3607219 L34.7348625,14.9861539 L36.5896671,14.2828749 C36.9606621,14.1421564 37.3555694,14.3816629 37.4188109,14.7559681 L37.4253456,14.8078222 L37.4275683,14.8612091 L37.4275683,17.1044433 C37.4275683,17.1965747 37.4069914,17.2872424 37.3676912,17.3699386 L37.3347345,17.4303644 L34.8750646,21.3966907 L36.9261142,21.4613216 C37.3253682,21.4738214 37.5983481,21.851061 37.5088612,22.2223604 L37.4943896,22.2729205 L37.4752914,22.3231981 L36.5973786,24.3717988 C36.5621024,24.4541155 36.5094835,24.5275388 36.4434081,24.5872102 L36.3913893,24.6293094 L32.6743034,27.3181693 L34.5260253,28.1483405 C34.8775243,28.3059002 34.9934589,28.7348536 34.7953854,29.0445246 L34.7614898,29.0923717 L34.7242933,29.1357847 L33.2612427,30.6965644 C33.1957166,30.7664675 33.1150826,30.8199493 33.0258998,30.8531728 L32.9575123,30.8742321 L28.3845302,31.9972096 L29.7634191,33.5729519 C30.0218311,33.8683022 29.9399803,34.315879 29.6190362,34.5092128 L29.569114,34.5362552 L29.5181851,34.5582308 L27.4699968,35.3388268 C27.3923372,35.3684241 27.3097146,35.381992 27.2270817,35.3789659 L27.1651824,35.3735761 L22.539338,34.7348626 L23.2430295,36.5896672 C23.383748,36.9606621 23.1442415,37.3555694 22.7699362,37.418811 L22.7180821,37.4253456 L22.6646952,37.4275684 L20.421461,37.4275684 C20.3293296,37.4275684 20.2386619,37.4069915 20.1559657,37.3676913 L20.0955399,37.3347345 L16.1288013,34.8750647 L16.0645827,36.9261143 C16.052083,37.3253683 15.6748434,37.5983482 15.3035439,37.5088613 L15.2529838,37.4943896 L15.2027062,37.4752915 L13.1541055,36.5973787 C13.0717889,36.5621025 12.9983656,36.5094835 12.9386941,36.4434082 L12.8965949,36.3913894 L10.2073227,32.6743034 L9.37756379,34.5260254 C9.22000409,34.8775244 8.79105079,34.993459 8.48137979,34.7953855 L8.43353259,34.7614898 L8.39011969,34.7242933 L6.82933999,33.2612428 C6.75943679,33.1957167 6.70595509,33.1150826 6.67273149,33.0258999 L6.65167219,32.9575124 L5.52828239,28.3845303 L3.95295239,29.7634192 C3.65760209,30.0218312 3.21002529,29.9399804 3.01669159,29.6190362 L2.98964909,29.5691141 L2.96767349,29.5181852 L2.18707749,27.4699969 C2.15748019,27.3923373 2.14391229,27.3097147 2.14693839,27.2270818 L2.15232819,27.1651825 L2.79062939,22.5393381 L0.936237088,23.2430295 C0.548378788,23.3901443 0.134384788,23.1216826 0.100558688,22.7180822 L0.0983358884,22.6646953 L0.0983358884,20.4214611 C0.0983358884,20.3293297 0.118912888,20.238662 0.158212988,20.1559658 L0.191169788,20.09554 L2.65042729,16.1288014 L0.599790088,16.0645828 C0.200535988,16.052083 -0.0724439116,15.6748434 0.0170430884,15.303544 L0.0315146884,15.2529839 L0.0506127884,15.2027063 L0.928525588,13.1541056 C0.963801788,13.0717889 1.01642079,12.9983656 1.08249609,12.9386942 L1.13451499,12.896595 L4.85118849,10.2073227 L2.99987899,9.37756385 C2.64837989,9.22000415 2.53244539,8.79105075 2.73051879,8.48137975 L2.76441449,8.43353255 L2.80161099,8.39011965 L4.26466159,6.82933995 C4.33018769,6.75943685 4.41082169,6.70595505 4.5,6.67273155 L4.56839199,6.65167225 L9.14096169,5.52828245 L7.76248519,3.95295245 C7.50407319,3.65760215 7.58592399,3.21002535 7.90686809,3.01669155 L7.95679029,2.98964915 L8.00771909,2.96767355 L10.0559075,2.18707755 C10.133567,2.15748025 10.2161896,2.14391235 10.2988226,2.14693845 L10.3607218,2.15232825 L14.9861539,2.79062945 L14.2828748,0.936237155 C14.1421563,0.565242255 14.3816628,0.170334955 14.7559681,0.107093355 L14.8078222,0.100558755 L14.861209,0.0983359547 L17.1044433,0.0983359547 C17.1965746,0.0983359547 17.2872423,0.118912855 17.3699385,0.158213055 L17.4303644,0.191169855 L21.3966906,2.65042725 L21.4613215,0.599790055 Z M16.9287782,1.33541365 L15.7568533,1.33541365 L16.512502,3.32629685 C16.6662282,3.73158585 16.3677065,4.15233915 15.954994,4.16419455 L15.9028347,4.16351615 L15.8496326,4.15839415 L10.3483495,3.39927165 L9.27827729,3.80709495 L10.7416998,5.47932935 C11.0220655,5.79977145 10.8991105,6.28838295 10.5284818,6.45175755 L10.4764209,6.47197365 L10.4237294,6.48730675 L5.04169849,7.80904135 L4.29697769,8.60324525 L6.33467359,9.51671295 C6.73285339,9.69519735 6.81715869,10.207397 6.53137189,10.5064327 L6.49010179,10.5458377 L6.44421199,10.582292 L1.99766259,13.7989717 L1.54447979,14.8562608 L3.76006069,14.92584 C4.19938949,14.9395945 4.47288459,15.3876067 4.31501729,15.7747625 L4.29301799,15.8228042 L4.26641009,15.8699971 L1.33500129,20.5975384 L1.33500129,21.7686387 L3.32629679,21.0134023 C3.73158589,20.8596761 4.15233909,21.1581978 4.16419449,21.5709103 L4.16351609,21.6230696 L4.15839409,21.6762718 L3.39927159,27.1771424 L3.80709489,28.2472147 L5.47932929,26.7842045 C5.79977139,26.5038388 6.28838289,26.6267938 6.45175749,26.9974225 L6.47197359,27.0494834 L6.48730669,27.102175 L7.80904129,32.4837935 L8.60324519,33.2285143 L9.51671299,31.1912307 C9.69519729,30.7930509 10.2073969,30.7087456 10.5064326,30.9945324 L10.5458376,31.0358026 L10.5822919,31.0816923 L13.7989716,35.5278294 L14.8562607,35.9810122 L14.92584,33.7658436 C14.9395944,33.3265148 15.3876066,33.0530197 15.7747624,33.210887 L15.8228041,33.2328863 L15.869997,33.2594942 L20.5975384,36.1904907 L21.7686386,36.1904907 L21.0134023,34.1996075 C20.859676,33.7943185 21.1581978,33.3735652 21.5709102,33.3617098 L21.6230696,33.3623882 L21.6762717,33.3675102 L27.1771424,34.1262203 L28.2472146,33.718397 L26.7842044,32.046575 C26.5038387,31.7261329 26.6267937,31.2375214 26.9974225,31.0741468 L27.0494833,31.0539307 L27.1021749,31.0385976 L32.4837934,29.7164506 L33.2285142,28.9222467 L31.1912306,28.0091914 C30.7930508,27.830707 30.7087456,27.3185074 30.9945323,27.0194717 L31.0358025,26.9800667 L31.0816922,26.9436124 L35.5278293,23.7265203 L35.9810121,22.6692313 L33.7658436,22.6000643 C33.3265148,22.5863099 33.0530197,22.1382977 33.210887,21.7511419 L33.2328863,21.7031002 L33.2594942,21.6559073 L36.1904906,16.9279536 L36.1904906,15.7568534 L34.1996074,16.5125021 C33.7943184,16.6662283 33.3735652,16.3677066 33.3617097,15.9549941 L33.3623882,15.9028347 L33.3675101,15.8496326 L34.1262203,10.3483496 L33.718397,9.27827735 L32.046575,10.7416999 C31.7261328,11.0220656 31.2375213,10.8991106 31.0741467,10.5284818 L31.0539306,10.476421 L31.0385975,10.4237294 L29.7164506,5.04169855 L28.9222467,4.29697775 L28.0091913,6.33467365 C27.8307069,6.73285345 27.3185074,6.81715875 27.0194716,6.53137195 L26.9800666,6.49010175 L26.9436123,6.44421205 L23.7265203,1.99766265 L22.6692312,1.54447985 L22.6000643,3.76006075 C22.5863099,4.19938945 22.1382976,4.47288465 21.7511418,4.31501735 L21.7031001,4.29301805 L21.6559072,4.26641015 L16.9287782,1.33541365 Z M18.7633645,14.5350329 C21.097736,14.5350329 22.9900467,16.42824 22.9900467,18.7629522 C22.9900467,21.0981693 21.0980556,22.9904591 18.7633645,22.9904591 C16.4279412,22.9904591 14.5354452,21.0982619 14.5354452,18.7629522 C14.5354452,16.4281474 16.428261,14.5350329 18.7633645,14.5350329 Z M18.7633645,15.7721106 C17.1115238,15.7721106 15.7725229,17.1113229 15.7725229,18.7629522 C15.7725229,20.414999 17.1111166,21.7533814 18.7633645,21.7533814 C20.4147927,21.7533814 21.752969,20.4149939 21.752969,18.7629522 C21.752969,17.111328 20.4143856,15.7721106 18.7633645,15.7721106 Z" id="Shape" fill="#000000"></path>
            </g>
        </g>
    </g>
</svg>