<?xml version="1.0" encoding="UTF-8"?>
<svg width="48px" height="48px" viewBox="0 0 48 48" version="1.1" xmlns="http://www.w3.org/2000/svg" xmlns:xlink="http://www.w3.org/1999/xlink">
    <title>Icon / Kundengalerie 48</title>
    <g id="Icon-/-Kundengalerie-48" stroke="none" stroke-width="1" fill="none" fill-rule="evenodd">
        <g id="Icon">
            <path d="M35,12.4 L19,12.4 C18.6686292,12.4 18.4,12.6686292 18.4,13 L18.4,25 C18.4,25.3313708 18.6686292,25.6 19,25.6 L35,25.6 C35.3313708,25.6 35.6,25.3313708 35.6,25 L35.6,13 C35.6,12.6686292 35.3313708,12.4 35,12.4 Z" id="Path" fill="#FFD24D" fill-rule="nonzero" style="mix-blend-mode: multiply;"></path>
            <path d="M12.9398479,2.28376757 L42.7162324,5.93984788 L39.999,28.0677676 L40,8 L12.237,7.99976757 L12.9398479,2.28376757 Z" id="Combined-Shape" stroke="#000000" stroke-width="1.2" stroke-linejoin="round"></path>
            <path d="M40,8 L40,41 L8,41 L8,8 L40,8 Z M37,11 L11,11 L11,34 L37,34 L37,11 Z" id="Combined-Shape" stroke="#000000" stroke-width="1.2" stroke-linejoin="round"></path>
            <g id="Möbel" transform="translate(16.000000, 16.000000)" stroke="#000000" stroke-linejoin="round" stroke-width="1.2">
                <polygon id="Stroke-1-path" fill-rule="nonzero" points="8 0 8 12 0 12 0 0"></polygon>
                <polygon id="Stroke-3-path" fill-rule="nonzero" points="16 0 16 12 8 12 8 0"></polygon>
                <line x1="0.5" y1="12" x2="0.5" y2="15" id="Line-Copy-10" stroke-linecap="round"></line>
                <line x1="15.5" y1="12" x2="15.5" y2="15" id="Line-Copy-10" stroke-linecap="round"></line>
                <line x1="10.5" y1="5" x2="10.5" y2="7" id="Line-Copy" stroke-linecap="round"></line>
                <line x1="5.5" y1="5" x2="5.5" y2="7" id="Line-Copy" stroke-linecap="round"></line>
            </g>
        </g>
    </g>
</svg>