<?xml version="1.0" encoding="UTF-8"?>
<svg width="48px" height="48px" viewBox="0 0 48 48" version="1.1" xmlns="http://www.w3.org/2000/svg" xmlns:xlink="http://www.w3.org/1999/xlink">
    <title>Icon / Bewertungen 48</title>
    <g id="Icon-/-Bewertungen-48" stroke="none" stroke-width="1" fill="none" fill-rule="evenodd">
        <g id="Icon">
            <path d="M41,12 C42.1045695,12 43,12.8954305 43,14 L43,35.8823529 C43,36.9869224 42.1045695,37.8823529 41,37.8823529 L18.058,37.882 L11,44.9411765 L11,14 C11,12.8954305 11.8954305,12 13,12 L41,12 Z M26.4619584,16.7344606 L24.249,21.215 L19.3052689,21.9340998 L19.2108603,21.955278 C18.7893919,22.0851035 18.6403713,22.6335356 18.9727409,22.9575159 L22.551,26.445 L21.706353,31.3707089 L21.6974403,31.4611278 C21.686304,31.9052106 22.1642573,32.2201658 22.5769227,32.0032148 L27,29.678 L31.4230773,32.0032148 L31.5063167,32.0396323 C31.9252232,32.1874526 32.3724591,31.8302186 32.293647,31.3707089 L31.448,26.445 L35.0272591,22.9575159 L35.0911891,22.8848904 C35.3558547,22.5321265 35.1540545,22.0008434 34.6947311,21.9340998 L29.75,21.215 L27.5380416,16.7344606 C27.3179534,16.2885131 26.6820466,16.2885131 26.4619584,16.7344606 Z" id="Combined-Shape" fill="#FFD24D" style="mix-blend-mode: multiply;"></path>
            <path d="M38,9 C39.1045695,9 40,9.8954305 40,11 L40,32.8823529 C40,33.9869224 39.1045695,34.8823529 38,34.8823529 L15.058,34.882 L8,41.9411765 L8,33.0090124 C8.00134407,32.967628 8,32.9251474 8,32.8823529 L8,11 C8,9.8954305 8.8954305,9 10,9 L38,9 Z" id="Combined-Shape" stroke="#000000" stroke-width="1.2" stroke-linejoin="round"></path>
            <polygon id="Star" stroke="#000000" stroke-width="1.2" stroke-linejoin="round" points="24 26 19.297718 28.472136 20.1957739 23.236068 16.3915479 19.527864 21.648859 18.763932 24 14 26.351141 18.763932 31.6084521 19.527864 27.8042261 23.236068 28.702282 28.472136"></polygon>
        </g>
    </g>
</svg>