<svg id="Ebene_1" data-name="Ebene 1" xmlns="http://www.w3.org/2000/svg" viewBox="0 0 70.87 70.87"><defs><style>.cls-1{fill:#fff;}.cls-1,.cls-2{stroke:#010101;stroke-linecap:round;stroke-linejoin:round;stroke-width:0.5px;}.cls-2{fill:none;}.cls-3{fill:#010101;}</style></defs><title>Icons</title><path class="cls-1" d="M64.54,60.85a147.3,147.3,0,0,0-12.5-16c-5.3-5.8-10.5-10.3-10.9-10.9-.7-1.1,3.8-7.2,3.8-7.2a1.21,1.21,0,0,0-.1-1.5l-4.61-5.32-1.29-1.58,0,0-12.15-14-.9,2.4h-2.1l-.5,2h-2.7l-.3,2.3h-2.6l-.7,2.8H14l-.6,2.8h-2.9l-.8,3-3.5.9,18.5,21.6a1.4,1.4,0,0,0,1.5.3s6.3-3.2,7.6-2.5c.7.3,4.5,6.8,9.7,12.6a110.63,110.63,0,0,0,14.8,13c2,1.5,5-1.3,5-1.3S65,61.65,64.54,60.85Z"/><path id="path-1" class="cls-2" d="M6.24,20.55l3.5-.9.8-3h2.9l.6-2.8h2.9l.7-2.8h2.6l.3-2.3h2.7l.5-2h2.1l.9-2.4,18.1,20.9a1.21,1.21,0,0,1,.1,1.5s-4.5,6.1-3.8,7.2c.4.6,5.6,5.1,10.9,10.9a147.3,147.3,0,0,1,12.5,16c.5.8-1.2,3.4-1.2,3.4s-3,2.8-5,1.3a110.63,110.63,0,0,1-14.8-13c-5.2-5.8-9-12.3-9.7-12.6-1.3-.7-7.6,2.5-7.6,2.5a1.4,1.4,0,0,1-1.5-.3Z"/><circle id="Oval-2" class="cls-3" cx="58.74" cy="60.65" r="0.9"/><polygon id="Path-20" class="cls-2" points="18.44 34.65 38.94 18.35 40.74 20.55 20.34 36.85 18.44 34.65"/></svg>