<svg id="Ebene_1" data-name="Ebene 1" xmlns="http://www.w3.org/2000/svg" viewBox="0 0 70.87 70.87"><defs><style>.cls-1,.cls-2{fill:#fff;}.cls-1,.cls-3{stroke:#010101;stroke-linecap:round;stroke-linejoin:round;stroke-width:0.5px;}.cls-3{fill:none;}</style></defs><title>Icons</title><polyline id="path-1" class="cls-1" points="54.78 41.72 64.48 46.52 35.28 62.92 6.38 47.22 17.38 41.72"/><polygon id="Rectangle-6" class="cls-2" points="35.28 46.02 64.48 30.22 64.48 37.32 35.28 52.82 35.28 46.02"/><polygon id="Rectangle-6-2" data-name="Rectangle-6" class="cls-2" points="35.28 46.02 6.38 30.92 6.38 37.62 35.28 52.82 35.28 46.02"/><polygon id="path-3" class="cls-1" points="35.28 16.52 64.48 30.22 35.28 46.02 6.38 30.92 35.28 16.52"/><polyline id="Path-17" class="cls-3" points="6.38 30.92 6.38 37.62 35.28 52.82 64.48 37.32 64.48 30.22"/><path id="Path-18" class="cls-3" d="M35.28,46v6.8"/><polygon id="path-5" class="cls-1" points="35.28 7.42 64.48 21.12 35.28 37.62 6.38 21.82 35.28 7.42"/><polyline id="Line" class="cls-3" points="6.38 35.22 35.28 50.52 35.28 50.52 64.48 34.82"/><polyline id="Line-2" data-name="Line" class="cls-3" points="6.38 33.22 35.28 48.32 35.28 48.32 64.48 32.52"/></svg>