<?xml version="1.0" encoding="utf-8"?>
<!-- Generator: Adobe Illustrator 23.0.3, SVG Export Plug-In . SVG Version: 6.00 Build 0)  -->
<svg version="1.1" id="Ebene_1" xmlns="http://www.w3.org/2000/svg" xmlns:xlink="http://www.w3.org/1999/xlink" x="0px" y="0px"
	 viewBox="0 0 274.3 274.3" style="enable-background:new 0 0 274.3 274.3;" xml:space="preserve">
<style type="text/css">
	.st0{fill:none;stroke:#323232;stroke-width:8;stroke-linecap:round;stroke-linejoin:round;}
	.st1{fill:none;stroke:#323232;stroke-width:8;}
</style>
<path class="st0" d="M240.5,207.6c4.4-10.3-0.2-22.1-10.3-26.8c-18.8-4.7-37.9-8-56.9-11.7c-5-0.9-10.1,1.7-12.2,6.4
	c-2.5,4.2-5.1,8.3-7.8,12.7c-15.3-7.3-29.1-17.1-41-28.9c-11.8-11.9-21.6-25.8-28.9-41c4.4-2.7,8.5-5.3,12.7-7.8
	c4.7-2.1,7.3-7.1,6.4-12.2c-3.6-19-7-38.1-11.7-56.9C86.1,31.3,74.3,26.7,64,31.1c-15.9,6-27.7,19.6-31.3,36.1
	c-1.1,12.1-0.6,24.2,1.5,36.1c7.1,24.3,18.9,47,34.7,66.8c0,0.1,0.1,0.1,0.1,0.2c8.7,12.6,19.6,23.6,32.2,32.2l0.2,0.1
	c19.8,15.8,42.5,27.6,66.8,34.7c11.9,2.1,24.1,2.6,36.1,1.5C221,235.3,234.6,223.5,240.5,207.6z"/>
</svg>
