<?xml version="1.0" encoding="utf-8"?>
<!-- Generator: Adobe Illustrator 25.1.0, SVG Export Plug-In . SVG Version: 6.00 Build 0)  -->
<svg version="1.1" id="Ebene_1" xmlns="http://www.w3.org/2000/svg" xmlns:xlink="http://www.w3.org/1999/xlink" x="0px" y="0px"
	 viewBox="0 0 102.6 102.6" style="enable-background:new 0 0 102.6 102.6;" xml:space="preserve">
<style type="text/css">
	.st0{fill:none;stroke:#030404;stroke-width:1.8075;stroke-linecap:round;stroke-linejoin:round;}
	.st1{fill:none;stroke:#030404;stroke-width:1.8075;stroke-linecap:round;stroke-linejoin:round;stroke-dasharray:0,5.0106;}
	.st2{fill:none;stroke:#030404;stroke-width:1.8075;stroke-linecap:round;stroke-linejoin:round;stroke-dasharray:0,4.6906;}
	.st3{fill:none;stroke:#030404;stroke-width:1.8075;stroke-linecap:round;stroke-linejoin:round;stroke-dasharray:0,4.6458;}
	.st4{fill:none;stroke:#030404;stroke-width:1.8075;stroke-linecap:round;stroke-linejoin:round;stroke-dasharray:0,4.6568;}
	.st5{fill:none;stroke:#030404;stroke-width:1.8075;stroke-linecap:round;stroke-linejoin:round;stroke-dasharray:0,4.82;}
	.st6{fill:none;stroke:#000000;stroke-width:2.41;stroke-miterlimit:10;}
</style>
<g>
	<g id="Komponente_3_2_2_" transform="translate(0 6)">
		<g id="Gruppe_2651_1_" transform="translate(899 -5889)">
			<g id="Gruppe_2664_1_" transform="translate(-3)">
				<g id="Pfad_985_4_">
					<g>
						<line class="st0" x1="-836.1" y1="5947.6" x2="-836.1" y2="5947.6"/>
						<line class="st1" x1="-833" y1="5948.2" x2="-822.5" y2="5950.1"/>
						<line class="st0" x1="-820.9" y1="5950.4" x2="-820.9" y2="5950.4"/>
						<line class="st2" x1="-820.9" y1="5947.4" x2="-820.9" y2="5914.3"/>
						<line class="st0" x1="-820.9" y1="5912.9" x2="-820.9" y2="5912.9"/>
						<line class="st1" x1="-824" y1="5913.4" x2="-834.5" y2="5915.5"/>
						<line class="st0" x1="-836.1" y1="5915.8" x2="-836.1" y2="5915.8"/>
					</g>
				</g>
				<g id="Pfad_986_2_">
					<g>
						<line class="st0" x1="-836.1" y1="5915.8" x2="-836.1" y2="5915.8"/>
						<line class="st3" x1="-838.9" y1="5915.2" x2="-865.6" y2="5910.4"/>
						<line class="st0" x1="-866.9" y1="5910.1" x2="-866.9" y2="5910.1"/>
						<line class="st4" x1="-866.9" y1="5913.1" x2="-866.9" y2="5951.6"/>
						<line class="st0" x1="-866.9" y1="5953.1" x2="-866.9" y2="5953.1"/>
						<line class="st3" x1="-864.1" y1="5952.6" x2="-837.5" y2="5947.7"/>
						<line class="st0" x1="-836.1" y1="5947.6" x2="-836.1" y2="5947.6"/>
					</g>
				</g>
				<path id="Pfad_987_1_" class="st0" d="M-866.9,5910.1v42.9l14.1,5.3v-53.8L-866.9,5910.1z"/>
				<path id="Pfad_988_1_" class="st0" d="M-820.9,5912.9l-32-8.1v53.8l32-8.1V5912.9z"/>
			</g>
		</g>
	</g>
	<path id="Pfad_985_2_" class="st5" d="M59.9,32.8v31.8"/>
</g>
<path class="st6" d="M85.4,5.1H18.2c-1.7,0-3.1,1.4-3.1,3.1v86c0,1.7,1.4,3.1,3.1,3.1h67.3c1.7,0,3.1-1.4,3.1-3.1v-86
	C88.5,6.5,87.1,5.1,85.4,5.1z M82.1,83.2c0,1.7-1.4,3.1-3.1,3.1H24.6c-1.7,0-3.1-1.4-3.1-3.1V14.8c0-1.7,1.4-3.1,3.1-3.1H79
	c1.7,0,3.1,1.4,3.1,3.1V83.2z"/>
<circle cx="51.8" cy="91.7" r="2.5"/>
</svg>
