<?xml version="1.0" encoding="UTF-8" standalone="no"?>
<!DOCTYPE svg PUBLIC "-//W3C//DTD SVG 1.1//EN" "http://www.w3.org/Graphics/SVG/1.1/DTD/svg11.dtd">
<svg width="100%" height="100%" viewBox="0 0 22 22" version="1.1" xmlns="http://www.w3.org/2000/svg" xmlns:xlink="http://www.w3.org/1999/xlink" xml:space="preserve" xmlns:serif="http://www.serif.com/" style="fill-rule:evenodd;clip-rule:evenodd;stroke-linejoin:round;stroke-miterlimit:2;">
    <g transform="matrix(1,0,0,1,-78.125,-1341.49)">
        <g transform="matrix(1,0,0,1,-4224.71,786.606)">
            <g transform="matrix(1,0,0,1,127.834,430.608)">
                <path d="M4175.37,141.291L4180,146L4196.45,129.218L4192,125L4175.37,141.291Z" style="fill:white;"/>
            </g>
            <g transform="matrix(1.1,0,0,1.1,4296.23,548.288)">
                <path d="M21.768,6.063L21.845,6.124L25.876,10.155C26.018,10.297 26.038,10.514 25.937,10.677L25.876,10.753L10.753,25.876C10.612,26.018 10.395,26.038 10.232,25.937L10.155,25.876L6.124,21.845C5.982,21.703 5.962,21.486 6.063,21.323L6.124,21.247L21.247,6.124C21.388,5.982 21.605,5.962 21.768,6.063ZM21.544,7.02L17.074,11.49L18.245,12.659C18.389,12.803 18.407,13.026 18.299,13.19L18.245,13.257C18.091,13.41 17.846,13.422 17.674,13.282L16.477,12.087L15.067,13.497L16.238,14.665C16.383,14.81 16.401,15.033 16.292,15.197L16.238,15.263C16.084,15.417 15.84,15.428 15.667,15.288L14.471,14.093L13.061,15.503L14.232,16.671C14.376,16.816 14.394,17.039 14.286,17.203L14.232,17.269C14.078,17.423 13.833,17.435 13.661,17.294L12.465,16.099L11.055,17.509L12.226,18.678C12.37,18.822 12.388,19.045 12.28,19.209L12.226,19.275C12.072,19.429 11.827,19.441 11.655,19.3L10.458,18.106L9.048,19.516L10.219,20.684C10.364,20.828 10.382,21.051 10.273,21.215L10.219,21.282C10.065,21.435 9.821,21.447 9.649,21.307L8.452,20.112L7.02,21.546L10.453,24.979L24.979,10.453L21.544,7.02ZM22.651,9.505C23.109,9.963 23.109,10.704 22.651,11.162C22.194,11.62 21.451,11.62 20.993,11.162C20.571,10.74 20.538,10.075 20.896,9.615L20.993,9.505C21.451,9.047 22.194,9.047 22.651,9.505ZM21.591,10.103C21.463,10.23 21.463,10.437 21.591,10.564C21.719,10.692 21.926,10.692 22.053,10.564C22.181,10.437 22.181,10.23 22.053,10.102C21.926,9.975 21.719,9.975 21.591,10.103Z" style="fill-rule:nonzero;"/>
            </g>
        </g>
    </g>
</svg>
