<?xml version="1.0" encoding="UTF-8" standalone="no"?>
<!DOCTYPE svg PUBLIC "-//W3C//DTD SVG 1.1//EN" "http://www.w3.org/Graphics/SVG/1.1/DTD/svg11.dtd">
<svg width="100%" height="100%" viewBox="0 0 18 18" version="1.1" xmlns="http://www.w3.org/2000/svg" xmlns:xlink="http://www.w3.org/1999/xlink" xml:space="preserve" xmlns:serif="http://www.serif.com/" style="fill-rule:evenodd;clip-rule:evenodd;stroke-linejoin:round;stroke-miterlimit:2;">
    <g transform="matrix(1,0,0,1,-17029.1,-2358.24)">
        <g transform="matrix(1,0,0,1,14599.2,1807.11)">
            <g transform="matrix(0.0362903,0,0,0.0362903,2361.47,538.155)">
                <g transform="matrix(1,0,0,1,-4206.78,128.48)">
                    <circle cx="6341.6" cy="477" r="248" style="fill:none;"/>
                    <path d="M6341.6,229C6478.48,229 6589.6,340.125 6589.6,477C6589.6,613.875 6478.48,725 6341.6,725C6204.73,725 6093.6,613.875 6093.6,477C6093.6,340.125 6204.73,229 6341.6,229ZM6341.6,259C6221.28,259 6123.6,356.683 6123.6,477C6123.6,597.317 6221.28,695 6341.6,695C6461.92,695 6559.6,597.317 6559.6,477C6559.6,356.683 6461.92,259 6341.6,259Z"/>
                </g>
                <g transform="matrix(0.792815,0,0,0.792815,1931.86,401.483)">
                    <path d="M256,118C279.196,118 298,136.804 298,160C298,183.196 279.196,202 256,202C232.804,202 214,183.196 214,160C214,136.804 232.804,118 256,118ZM312,372C312,378.627 306.627,384 300,384L212,384C205.373,384 200,378.627 200,372L200,348C200,341.373 205.373,336 212,336L224,336L224,272L212,272C205.373,272 200,266.627 200,260L200,236C200,229.373 205.373,224 212,224L276,224C282.627,224 288,229.373 288,236L288,336L300,336C306.627,336 312,341.373 312,348L312,372Z" style="fill-rule:nonzero;"/>
                </g>
            </g>
        </g>
    </g>
</svg>
