<svg id="Ebene_1" data-name="Ebene 1" xmlns="http://www.w3.org/2000/svg" viewBox="0 0 70.87 70.87"><defs><style>.cls-1,.cls-3{fill:none;}.cls-1,.cls-2,.cls-3{stroke:#000;stroke-linecap:round;stroke-linejoin:round;}.cls-1,.cls-2{stroke-width:0.5px;}.cls-2{fill:#fff;}.cls-3{stroke-width:0.25px;stroke-dasharray:1 1 6 1 3 1;}</style></defs><title>ICONS</title><rect class="cls-1" x="11.78" y="7.54" width="48.13" height="44.44"/><rect class="cls-1" x="9.37" y="5.31" width="52.94" height="48.89"/><polygon class="cls-2" points="24.9 66.69 9.37 54.2 9.37 5.97 24.9 18.46 24.9 66.69"/><line class="cls-1" x1="21.21" y1="37.97" x2="21.21" y2="43.84"/><polygon class="cls-2" points="9.37 5.97 11.51 5.31 27.04 17.8 24.9 18.46 9.37 5.97"/><polygon class="cls-2" points="24.9 66.72 27.04 66.04 27.04 17.8 24.9 18.46 24.9 66.72"/><polygon class="cls-2" points="46.79 66.69 62.31 54.2 62.31 5.97 46.79 18.46 46.79 66.69"/><line class="cls-1" x1="50.48" y1="37.97" x2="50.48" y2="43.84"/><polygon class="cls-2" points="62.31 5.97 60.17 5.31 44.65 17.8 46.79 18.46 62.31 5.97"/><polygon class="cls-2" points="46.79 66.72 44.65 66.04 44.65 17.8 46.79 18.46 46.79 66.72"/><line class="cls-3" x1="58.34" y1="30.17" x2="55" y2="49.28"/><line class="cls-3" x1="13.77" y1="26.65" x2="19.86" y2="51.15"/><line class="cls-3" x1="16.26" y1="49.77" x2="12.9" y2="36.26"/></svg>