<svg id="Ebene_1" data-name="Ebene 1" xmlns="http://www.w3.org/2000/svg" viewBox="0 0 70.87 70.87" width="32" height="32">
    <defs>
        <style>.cls-1{fill:#fff;}</style>
    </defs>
    <rect class="cls-1" x="13.09" y="9.62" width="51.8" height="51.8"/>
    <path d="M59.88,57,60,57h0l.08,0,0,0,.07,0,0,0,.07-.06,0,0,.08-.1s0,0,0,0a.2.2,0,0,0,0-.08.59.59,0,0,1,0-.09l6.91-23.77a.73.73,0,0,0-.12-.65.74.74,0,0,0-.59-.29H60.6V14.51a.74.74,0,0,0-.74-.73H18.11a.74.74,0,0,0-.74.73V31.77H11.19a.73.73,0,0,0-.7.94L17.4,56.48a.59.59,0,0,1,0,.09.2.2,0,0,0,0,.08s0,0,0,0l.08.1,0,0,.07.06,0,0,.07,0,.05,0,.08,0h0l.12,0H59.88Zm-41-41.76H59.13V31.77H18.84Z"/>
</svg>