<svg id="Ebene_1" data-name="Ebene 1" xmlns="http://www.w3.org/2000/svg" viewBox="0 0 70.87 70.87" width="32" height="32">
    <defs>
        <style>.cls-1{fill:#fff;}</style>
    </defs>
    <rect class="cls-1" x="10.41" y="9.62" width="51.8" height="51.8"/>
    <path d="M14.78,57.08l31.05,13.1a.71.71,0,0,0,.28.06.67.67,0,0,0,.41-.13.71.71,0,0,0,.33-.61V57.14H57.18a.74.74,0,0,0,.74-.74V14.64a.74.74,0,0,0-.74-.73H15.42l-.18,0a.7.7,0,0,0-.58.1.73.73,0,0,0-.33.61V56.4A.73.73,0,0,0,14.78,57.08Zm41.67-41.7V55.66h-9.6V27.74a.75.75,0,0,0-.45-.68L18.7,15.38Z"/>
</svg>