<svg id="Ebene_1" data-name="Ebene 1" xmlns="http://www.w3.org/2000/svg" viewBox="0 0 70.87 70.87" width="32" height="32">
    <defs>
        <style>.cls-1{fill:#fff;}</style>
    </defs>
    <rect class="cls-1" x="9.53" y="9.62" width="51.8" height="51.8"/>
    <path d="M27.23,68.27a.72.72,0,0,0,.32-.08.73.73,0,0,0,.41-.66v-11H42.9v11a.73.73,0,0,0,1.2.57L58.69,56.37l0,0,.07-.07,0,0,0-.09a.08.08,0,0,0,0,0,.49.49,0,0,0,0-.11.06.06,0,0,0,0,0,.41.41,0,0,0,0-.16V14a1.1,1.1,0,0,0,0-.18l0,0-.06-.14,0,0a.69.69,0,0,0-.11-.13l0,0-.12-.09h0a.58.58,0,0,0-.17-.06H13l-.19,0a.83.83,0,0,0-.49,0,.74.74,0,0,0-.42.66V55.79a.77.77,0,0,0,.28.58L26.77,68.1A.71.71,0,0,0,27.23,68.27Zm28.9-53.5-13,10.43a.72.72,0,0,0-.28.57V55.06H28V25.77a.74.74,0,0,0-.27-.57l-13-10.43Z"/>
</svg>