<svg id="Ebene_1" data-name="Ebene 1" xmlns="http://www.w3.org/2000/svg" viewBox="0 0 886.39 256.21"><defs><style>.cls-1{fill:#282827;}</style></defs><title>arrow_left</title><path class="cls-1" d="M840.81,263.11c-6.5,3.27-13,6.38-19.76,9.13-14.3,5.85-28.7,11.52-43.26,16.7a870.43,870.43,0,0,1-84.31,24.91,1186.81,1186.81,0,0,1-176.82,29,1159.82,1159.82,0,0,1-175.35,2.06,1161.08,1161.08,0,0,1-174.4-24.37A982.82,982.82,0,0,1,54.68,289.47c13.55,10.7,28.55,21.39,43.39,30.92A531.82,531.82,0,0,0,218.46,378.5q17.73,6,35.84,10.73c7.17,1.88,14.07,3.33,20.84,6.42,3.59,1.65,6.74,3,9.78,5.59,2.2,1.87,4.35,3.79,6.49,5.72,5.88,5.32,1.69,14-4.64,16.18a50,50,0,0,1-17.89,3.29c-6.84-.11-13.17-1.69-19.73-3.45q-16.82-4.53-33.31-10.11A594.18,594.18,0,0,1,149,385.45a573.71,573.71,0,0,1-118.47-76.7c-9.74-8.13-19.65-16.42-28.4-25.62-4.41-4.63-8.77-9.28-12.71-14.32-2.35-3-5.41-6.13-7.31-9.43a17.15,17.15,0,0,1-2.37-7,9.39,9.39,0,0,1-3-6.78c.05-4.33,3-7.29,6.85-8.72,11.69-4.38,25.18-5.29,37.45-7.29,13.2-2.15,26.3-4.9,39.28-8.16a909.1,909.1,0,0,0,94.82-29.65q16.46-6.12,32.8-12.52c5.77-2.25,11.5-4.47,17.47-6.18,3.4-1,6.91-1.38,10.36-2.16,4.84-1.08,9.39-1.24,13.68,1.72a11.52,11.52,0,0,1,4.86,12.49c-1.52,7.21-8.72,10.58-14.42,14.2s-12.66,6.18-19,8.59c-10.08,3.81-20.18,7.54-30.35,11.1-17.58,6.16-35.29,12-53.17,17.24a563.88,563.88,0,0,1-57.9,13.87l16.8,5.38q40,12.84,80.83,22.54,41,9.78,82.73,16.51,5.1.82,10.2,1.61l4.39.66,3,.43c7.1,1,14.21,1.92,21.33,2.83q21,2.7,42.17,4.71a1250.51,1250.51,0,0,0,173.44,3.84q21.9-1,43.74-2.79,10.51-.87,21-1.92,5.26-.52,10.51-1.1l5.65-.64,2.42-.28,1.9-.22,1-.12,3.24-.4,4.85-.62c3.77-.5,7.54-1,11.31-1.53q10.89-1.53,21.76-3.26,21.72-3.46,43.31-7.76c28.46-5.67,56.79-12.22,84.78-19.9s55.42-16.61,83.26-24.45c7-2,14.17-3,21.19-4.94,7.94-2.23,12.41,9.34,5.28,13.31C853.23,255.57,847.28,259.85,840.81,263.11Z" transform="translate(23.25 -170.23)"/></svg>